<svg width="5" height="12" viewBox="0 0 5 12" fill="none" xmlns="http://www.w3.org/2000/svg">
<path d="M2.5823 8.45965C2.17026 8.45965 1.75821 8.60336 1.46389 8.85997C1.16957 9.11658 0.992978 9.46557 0.992978 9.8351C0.992978 10.2046 1.1578 10.5536 1.46389 10.8102C1.76998 11.0668 2.17026 11.2105 2.5823 11.2105C2.99435 11.2105 3.4064 11.0668 3.70071 10.8102C3.99503 10.5536 4.15985 10.2046 4.15985 9.8351C4.15985 9.46557 3.99503 9.11658 3.70071 8.85997C3.4064 8.60336 2.99435 8.45965 2.5823 8.45965ZM4.63076 2.93734L3.75958 6.71468C3.52412 7.82325 1.62871 7.81299 1.40502 6.71468L0.533839 2.93734C0.0864742 0.0735397 5.06636 0.0735397 4.61899 2.93734H4.63076Z" fill="white"/>
</svg>
