<svg width="11" height="11" viewBox="0 0 11 11" fill="none" xmlns="http://www.w3.org/2000/svg">
<path d="M0.945252 9.18167C0.593781 9.53315 0.593781 10.103 0.945252 10.4545C1.29672 10.8059 1.86657 10.8059 2.21804 10.4545L0.945252 9.18167ZM10.7548 1.54492C10.7548 1.04787 10.3519 0.644922 9.8548 0.644922L1.7548 0.644922C1.25774 0.644922 0.854798 1.04787 0.854798 1.54492C0.854798 2.04198 1.25774 2.44492 1.7548 2.44492L8.9548 2.44492L8.9548 9.64492C8.9548 10.142 9.35774 10.5449 9.8548 10.5449C10.3519 10.5449 10.7548 10.142 10.7548 9.64492L10.7548 1.54492ZM2.21804 10.4545C2.22435 10.4482 2.23066 10.4419 2.23696 10.4356C2.24326 10.4293 2.24955 10.423 2.25584 10.4167C2.26213 10.4104 2.26841 10.4041 2.27469 10.3978C2.28097 10.3915 2.28724 10.3853 2.29351 10.379C2.29978 10.3727 2.30604 10.3665 2.31229 10.3602C2.31855 10.354 2.3248 10.3477 2.33105 10.3415C2.3373 10.3352 2.34354 10.329 2.34977 10.3227C2.35601 10.3165 2.36224 10.3103 2.36846 10.304C2.37469 10.2978 2.38091 10.2916 2.38712 10.2854C2.39334 10.2792 2.39955 10.273 2.40575 10.2668C2.41195 10.2606 2.41815 10.2544 2.42435 10.2482C2.43054 10.242 2.43673 10.2358 2.44291 10.2296C2.4491 10.2234 2.45527 10.2172 2.46145 10.2111C2.46762 10.2049 2.47379 10.1987 2.47995 10.1926C2.48611 10.1864 2.49227 10.1802 2.49842 10.1741C2.50458 10.1679 2.51072 10.1618 2.51687 10.1556C2.52301 10.1495 2.52915 10.1434 2.53528 10.1372C2.54141 10.1311 2.54754 10.125 2.55366 10.1189C2.55978 10.1127 2.5659 10.1066 2.57201 10.1005C2.57812 10.0944 2.58423 10.0883 2.59033 10.0822C2.59643 10.0761 2.60253 10.07 2.60862 10.0639C2.61472 10.0578 2.6208 10.0517 2.62689 10.0456C2.63297 10.0395 2.63905 10.0335 2.64512 10.0274C2.65119 10.0213 2.65726 10.0153 2.66332 10.0092C2.66938 10.0031 2.67544 9.99707 2.68149 9.99102C2.68755 9.98497 2.69359 9.97892 2.69964 9.97287C2.70568 9.96683 2.71172 9.96079 2.71775 9.95476C2.72378 9.94873 2.72981 9.9427 2.73584 9.93667C2.74186 9.93065 2.74788 9.92463 2.75389 9.91862C2.75991 9.9126 2.76592 9.90659 2.77192 9.90059C2.77793 9.89459 2.78393 9.88859 2.78992 9.88259C2.79591 9.8766 2.8019 9.87061 2.80789 9.86462C2.81388 9.85864 2.81986 9.85265 2.82583 9.84668C2.83181 9.8407 2.83778 9.83473 2.84375 9.82877C2.84971 9.8228 2.85567 9.81684 2.86163 9.81088C2.86759 9.80492 2.87354 9.79897 2.87949 9.79302C2.88544 9.78707 2.89138 9.78113 2.89732 9.77519C2.90326 9.76925 2.90919 9.76332 2.91512 9.75739C2.92105 9.75146 2.92697 9.74554 2.93289 9.73962C2.93881 9.7337 2.94473 9.72778 2.95064 9.72187C2.95655 9.71596 2.96246 9.71005 2.96836 9.70415C2.97426 9.69825 2.98016 9.69235 2.98605 9.68646C2.99194 9.68057 2.99783 9.67468 3.00372 9.66879C3.0096 9.66291 3.01548 9.65703 3.02135 9.65116C3.02723 9.64528 3.0331 9.63941 3.03897 9.63355C3.04483 9.62768 3.05069 9.62182 3.05655 9.61596C3.06241 9.61011 3.06826 9.60425 3.07411 9.5984C3.07995 9.59256 3.0858 9.58671 3.09164 9.58087C3.09748 9.57503 3.10331 9.5692 3.10914 9.56337C3.11497 9.55754 3.1208 9.55171 3.12662 9.54589C3.13244 9.54007 3.13826 9.53425 3.14407 9.52844C3.14988 9.52263 3.15569 9.51682 3.1615 9.51101C3.1673 9.50521 3.1731 9.49941 3.1789 9.49361C3.18469 9.48782 3.19049 9.48203 3.19627 9.47624C3.20206 9.47045 3.20784 9.46467 3.21362 9.45889C3.2194 9.45311 3.22517 9.44734 3.23094 9.44157C3.23671 9.4358 3.24248 9.43003 3.24824 9.42427C3.254 9.41851 3.25976 9.41275 3.26551 9.407C3.27127 9.40124 3.27702 9.39549 3.28276 9.38975C3.28851 9.384 3.29425 9.37826 3.29998 9.37253C3.30572 9.36679 3.31145 9.36106 3.31718 9.35533C3.32291 9.3496 3.32863 9.34388 3.33436 9.33816C3.34008 9.33244 3.34579 9.32672 3.3515 9.32101C3.35722 9.3153 3.36292 9.30959 3.36863 9.30388C3.37433 9.29818 3.38003 9.29248 3.38573 9.28678C3.39142 9.28109 3.39711 9.2754 3.4028 9.26971C3.40849 9.26402 3.41417 9.25834 3.41985 9.25266C3.42553 9.24698 3.43121 9.2413 3.43688 9.23563C3.44255 9.22996 3.44822 9.22429 3.45388 9.21863C3.45955 9.21297 3.46521 9.20731 3.47086 9.20165C3.47652 9.19599 3.48217 9.19034 3.48782 9.18469C3.49347 9.17905 3.49911 9.1734 3.50475 9.16776C3.51039 9.16212 3.51603 9.15649 3.52166 9.15085C3.52729 9.14522 3.53292 9.13959 3.53854 9.13397C3.54417 9.12834 3.54979 9.12272 3.55541 9.1171C3.56102 9.11149 3.56664 9.10587 3.57225 9.10026C3.57786 9.09465 3.58346 9.08905 3.58906 9.08345C3.59467 9.07785 3.60026 9.07225 3.60586 9.06665C3.61145 9.06106 3.61704 9.05547 3.62263 9.04988C3.62822 9.04429 3.6338 9.03871 3.63938 9.03313C3.64496 9.02755 3.65053 9.02198 3.65611 9.01641C3.66168 9.01083 3.66725 9.00527 3.67281 8.9997C3.67837 8.99414 3.68394 8.98858 3.68949 8.98302C3.69505 8.97746 3.7006 8.97191 3.70615 8.96636C3.7117 8.96081 3.71725 8.95526 3.72279 8.94972C3.72833 8.94418 3.73387 8.93864 3.73941 8.9331C3.74494 8.92757 3.75048 8.92204 3.756 8.91651C3.76153 8.91098 3.76706 8.90546 3.77258 8.89993C3.7781 8.89441 3.78362 8.8889 3.78913 8.88338C3.79464 8.87787 3.80015 8.87236 3.80566 8.86685C3.81117 8.86134 3.81667 8.85584 3.82217 8.85034C3.82767 8.84484 3.83317 8.83934 3.83866 8.83385C3.84415 8.82836 3.84964 8.82287 3.85513 8.81738C3.86062 8.8119 3.8661 8.80641 3.87158 8.80093C3.87706 8.79545 3.88253 8.78998 3.88801 8.78451C3.89348 8.77903 3.89895 8.77356 3.90441 8.7681C3.90988 8.76263 3.91534 8.75717 3.9208 8.75171C3.92626 8.74625 3.93171 8.7408 3.93717 8.73535C3.94262 8.72989 3.94807 8.72444 3.95351 8.719C3.95896 8.71355 3.9644 8.70811 3.96984 8.70267C3.97528 8.69723 3.98071 8.6918 3.98615 8.68637C3.99158 8.68093 3.99701 8.67551 4.00243 8.67008C4.00786 8.66465 4.01328 8.65923 4.0187 8.65381C4.02412 8.64839 4.02953 8.64298 4.03495 8.63756C4.04036 8.63215 4.04577 8.62674 4.05118 8.62134C4.05658 8.61593 4.06199 8.61053 4.06739 8.60513C4.07279 8.59973 4.07818 8.59433 4.08358 8.58893C4.08897 8.58354 4.09436 8.57815 4.09975 8.57276C4.10514 8.56738 4.11052 8.56199 4.1159 8.55661C4.12128 8.55123 4.12666 8.54585 4.13203 8.54048C4.13741 8.5351 4.14278 8.52973 4.14815 8.52436C4.15352 8.51899 4.15889 8.51363 4.16425 8.50826C4.16961 8.5029 4.17497 8.49754 4.18033 8.49218C4.18568 8.48683 4.19104 8.48147 4.19639 8.47612C4.20174 8.47077 4.20709 8.46543 4.21243 8.46008C4.21777 8.45474 4.22312 8.44939 4.22846 8.44406C4.23379 8.43872 4.23913 8.43338 4.24446 8.42805C4.2498 8.42272 4.25512 8.41739 4.26045 8.41206C4.26578 8.40673 4.2711 8.40141 4.27642 8.39609C4.28174 8.39077 4.28706 8.38545 4.29238 8.38013C4.29769 8.37482 4.30301 8.3695 4.30832 8.3642C4.31363 8.35889 4.31893 8.35358 4.32424 8.34828C4.32954 8.34297 4.33484 8.33767 4.34014 8.33237C4.34544 8.32707 4.35073 8.32178 4.35603 8.31649C4.36132 8.31119 4.36661 8.3059 4.3719 8.30062C4.37718 8.29533 4.38247 8.29004 4.38775 8.28476C4.39303 8.27948 4.39831 8.2742 4.40359 8.26893C4.40886 8.26365 4.41413 8.25838 4.4194 8.25311C4.42468 8.24784 4.42994 8.24257 4.43521 8.2373C4.44047 8.23204 4.44574 8.22677 4.451 8.22151C4.45626 8.21625 4.46151 8.211 4.46677 8.20574C4.47202 8.20049 4.47727 8.19524 4.48252 8.18999C4.48777 8.18474 4.49302 8.17949 4.49826 8.17425C4.50351 8.169 4.50875 8.16376 4.51399 8.15852C4.51923 8.15328 4.52446 8.14805 4.5297 8.14281C4.53493 8.13758 4.54016 8.13235 4.54539 8.12712C4.55062 8.12189 4.55585 8.11666 4.56107 8.11144C4.56629 8.10622 4.57151 8.101 4.57673 8.09578C4.58195 8.09056 4.58717 8.08534 4.59238 8.08013C4.5976 8.07492 4.60281 8.0697 4.60802 8.0645C4.61322 8.05929 4.61843 8.05408 4.62363 8.04888C4.62884 8.04367 4.63404 8.03847 4.63924 8.03327C4.64444 8.02807 4.64963 8.02288 4.65483 8.01768C4.66002 8.01249 4.66521 8.0073 4.6704 8.00211C4.67559 7.99692 4.68078 7.99173 4.68596 7.98655C4.69115 7.98136 4.69633 7.97618 4.70151 7.971C4.70669 7.96582 4.71187 7.96064 4.71704 7.95547C4.72222 7.95029 4.72739 7.94512 4.73256 7.93995C4.73774 7.93478 4.7429 7.92961 4.74807 7.92444C4.75324 7.91928 4.7584 7.91411 4.76356 7.90895C4.76872 7.90379 4.77388 7.89863 4.77904 7.89347C4.7842 7.88831 4.78935 7.88316 4.79451 7.87801C4.79966 7.87285 4.80481 7.8677 4.80996 7.86255C4.81511 7.85741 4.82025 7.85226 4.8254 7.84711C4.83054 7.84197 4.83568 7.83683 4.84082 7.83169C4.84596 7.82655 4.8511 7.82141 4.85624 7.81628C4.86137 7.81114 4.86651 7.80601 4.87164 7.80087C4.87677 7.79574 4.8819 7.79061 4.88702 7.78549C4.89215 7.78036 4.89728 7.77523 4.9024 7.77011C4.90752 7.76499 4.91264 7.75987 4.91776 7.75475C4.92288 7.74963 4.928 7.74451 4.93311 7.7394C4.93823 7.73428 4.94334 7.72917 4.94845 7.72406C4.95356 7.71895 4.95867 7.71384 4.96378 7.70873C4.96889 7.70362 4.97399 7.69852 4.9791 7.69342C4.9842 7.68831 4.9893 7.68321 4.9944 7.67811C4.9995 7.67301 5.0046 7.66792 5.00969 7.66282C5.01479 7.65772 5.01988 7.65263 5.02497 7.64754C5.03006 7.64245 5.03515 7.63736 5.04024 7.63227C5.04533 7.62718 5.05042 7.6221 5.0555 7.61701C5.06058 7.61193 5.06567 7.60685 5.07075 7.60177C5.07583 7.59668 5.08091 7.59161 5.08598 7.58653C5.09106 7.58145 5.09613 7.57638 5.10121 7.5713C5.10628 7.56623 5.11135 7.56116 5.11642 7.55609C5.12149 7.55102 5.12656 7.54595 5.13163 7.54088C5.13669 7.53582 5.14176 7.53075 5.14682 7.52569C5.15188 7.52063 5.15694 7.51557 5.162 7.51051C5.16706 7.50545 5.17212 7.50039 5.17718 7.49533C5.18223 7.49028 5.18729 7.48522 5.19234 7.48017C5.19739 7.47512 5.20244 7.47007 5.20749 7.46502C5.21254 7.45997 5.21759 7.45492 5.22264 7.44987C5.22768 7.44483 5.23273 7.43978 5.23777 7.43474C5.24282 7.4297 5.24786 7.42465 5.2529 7.41961C5.25794 7.41458 5.26297 7.40954 5.26801 7.4045C5.27305 7.39946 5.27808 7.39443 5.28312 7.38939C5.28815 7.38436 5.29318 7.37933 5.29821 7.3743C5.30324 7.36927 5.30827 7.36424 5.3133 7.35921C5.31833 7.35418 5.32336 7.34916 5.32838 7.34413C5.33341 7.33911 5.33843 7.33408 5.34345 7.32906C5.34847 7.32404 5.35349 7.31902 5.35851 7.314C5.36353 7.30898 5.36855 7.30396 5.37357 7.29895C5.37858 7.29393 5.3836 7.28892 5.38861 7.2839C5.39362 7.27889 5.39864 7.27388 5.40365 7.26887C5.40866 7.26385 5.41367 7.25885 5.41867 7.25384C5.42368 7.24883 5.42869 7.24382 5.43369 7.23882C5.4387 7.23381 5.4437 7.22881 5.44871 7.2238C5.45371 7.2188 5.45871 7.2138 5.46371 7.2088C5.46871 7.2038 5.47371 7.1988 5.47871 7.1938C5.48371 7.18881 5.4887 7.18381 5.4937 7.17881C5.49869 7.17382 5.50369 7.16882 5.50868 7.16383C5.51367 7.15884 5.51866 7.15385 5.52365 7.14886C5.52865 7.14387 5.53363 7.13888 5.53862 7.13389C5.54361 7.1289 5.5486 7.12391 5.55358 7.11893C5.55857 7.11394 5.56355 7.10896 5.56854 7.10397C5.57352 7.09899 5.5785 7.09401 5.58348 7.08903C5.58847 7.08405 5.59345 7.07907 5.59843 7.07409C5.6034 7.06911 5.60838 7.06413 5.61336 7.05915C5.61834 7.05418 5.62331 7.0492 5.62829 7.04422C5.63326 7.03925 5.63824 7.03428 5.64321 7.0293C5.64818 7.02433 5.65315 7.01936 5.65812 7.01439C5.6631 7.00942 5.66806 7.00445 5.67303 6.99948C5.678 6.99451 5.68297 6.98954 5.68794 6.98457C5.6929 6.97961 5.69787 6.97464 5.70284 6.96968C5.7078 6.96471 5.71276 6.95975 5.71773 6.95478C5.72269 6.94982 5.72765 6.94486 5.73261 6.9399C5.73758 6.93494 5.74254 6.92997 5.7475 6.92502C5.75246 6.92006 5.75741 6.9151 5.76237 6.91014C5.76733 6.90518 5.77229 6.90022 5.77724 6.89527C5.7822 6.89031 5.78716 6.88536 5.79211 6.8804C5.79707 6.87545 5.80202 6.87049 5.80697 6.86554C5.81192 6.86059 5.81688 6.85563 5.82183 6.85068C5.82678 6.84573 5.83173 6.84078 5.83668 6.83583C5.84163 6.83088 5.84658 6.82593 5.85153 6.82098C5.85648 6.81603 5.86143 6.81109 5.86637 6.80614C5.87132 6.80119 5.87627 6.79625 5.88121 6.7913C5.88616 6.78635 5.8911 6.78141 5.89605 6.77646C5.90099 6.77152 5.90594 6.76658 5.91088 6.76163C5.91582 6.75669 5.92076 6.75175 5.92571 6.74681C5.93065 6.74186 5.93559 6.73692 5.94053 6.73198C5.94547 6.72704 5.95041 6.7221 5.95535 6.71716C5.96029 6.71222 5.96523 6.70728 5.97017 6.70234C5.97511 6.69741 5.98004 6.69247 5.98498 6.68753C5.98992 6.68259 5.99485 6.67766 5.99979 6.67272C6.00473 6.66778 6.00966 6.66285 6.0146 6.65791C6.01953 6.65298 6.02447 6.64804 6.0294 6.64311C6.03434 6.63817 6.03927 6.63324 6.0442 6.62831C6.04914 6.62337 6.05407 6.61844 6.059 6.61351C6.06394 6.60858 6.06887 6.60364 6.0738 6.59871C6.07873 6.59378 6.08366 6.58885 6.08859 6.58392C6.09352 6.57899 6.09846 6.57406 6.10339 6.56913C6.10832 6.5642 6.11325 6.55927 6.11818 6.55434C6.1231 6.54941 6.12803 6.54448 6.13296 6.53955C6.13789 6.53462 6.14282 6.52969 6.14775 6.52476C6.15268 6.51983 6.1576 6.51491 6.16253 6.50998C6.16746 6.50505 6.17239 6.50012 6.17731 6.4952C6.18224 6.49027 6.18717 6.48534 6.1921 6.48042C6.19702 6.47549 6.20195 6.47056 6.20687 6.46564C6.2118 6.46071 6.21673 6.45578 6.22165 6.45086C6.22658 6.44593 6.2315 6.44101 6.23643 6.43608C6.24136 6.43116 6.24628 6.42623 6.25121 6.42131C6.25613 6.41638 6.26106 6.41146 6.26598 6.40653C6.27091 6.40161 6.27583 6.39668 6.28075 6.39176C6.28568 6.38683 6.2906 6.38191 6.29553 6.37698C6.30045 6.37206 6.30538 6.36713 6.3103 6.36221C6.31523 6.35729 6.32015 6.35236 6.32507 6.34744C6.33 6.34251 6.33492 6.33759 6.33985 6.33266C6.34477 6.32774 6.34969 6.32282 6.35462 6.31789C6.35954 6.31297 6.36447 6.30804 6.36939 6.30312C6.37432 6.2982 6.37924 6.29327 6.38416 6.28835C6.38909 6.28342 6.39401 6.2785 6.39894 6.27357C6.40386 6.26865 6.40879 6.26373 6.41371 6.2588C6.41863 6.25388 6.42356 6.24895 6.42848 6.24403C6.43341 6.2391 6.43833 6.23418 6.44326 6.22925C6.44818 6.22433 6.45311 6.2194 6.45803 6.21448C6.46296 6.20955 6.46788 6.20463 6.47281 6.1997C6.47773 6.19478 6.48266 6.18985 6.48759 6.18493C6.49251 6.18 6.49744 6.17507 6.50236 6.17015C6.50729 6.16522 6.51222 6.1603 6.51714 6.15537C6.52207 6.15044 6.527 6.14552 6.53192 6.14059C6.53685 6.13566 6.54178 6.13073 6.54671 6.12581C6.55163 6.12088 6.55656 6.11595 6.56149 6.11102C6.56642 6.10609 6.57135 6.10117 6.57627 6.09624C6.5812 6.09131 6.58613 6.08638 6.59106 6.08145C6.59599 6.07652 6.60092 6.07159 6.60585 6.06666C6.61078 6.06173 6.61571 6.0568 6.62064 6.05187C6.62557 6.04694 6.63051 6.04201 6.63544 6.03707C6.64037 6.03214 6.6453 6.02721 6.65023 6.02228C6.65517 6.01734 6.6601 6.01241 6.66503 6.00748C6.66997 6.00254 6.6749 5.99761 6.67984 5.99268C6.68477 5.98774 6.6897 5.98281 6.69464 5.97787C6.69957 5.97294 6.70451 5.968 6.70945 5.96306C6.71438 5.95813 6.71932 5.95319 6.72426 5.94825C6.72919 5.94332 6.73413 5.93838 6.73907 5.93344C6.74401 5.9285 6.74895 5.92356 6.75389 5.91862C6.75883 5.91368 6.76377 5.90874 6.76871 5.9038C6.77365 5.89886 6.77859 5.89392 6.78353 5.88898C6.78847 5.88404 6.79342 5.8791 6.79836 5.87415C6.8033 5.86921 6.80825 5.86426 6.81319 5.85932C6.81814 5.85438 6.82308 5.84943 6.82803 5.84449C6.83297 5.83954 6.83792 5.83459 6.84287 5.82965C6.84781 5.8247 6.85276 5.81975 6.85771 5.8148C6.86266 5.80985 6.86761 5.8049 6.87256 5.79995C6.87751 5.795 6.88246 5.79005 6.88741 5.7851C6.89236 5.78015 6.89731 5.7752 6.90227 5.77025C6.90722 5.76529 6.91217 5.76034 6.91713 5.75538C6.92208 5.75043 6.92704 5.74547 6.93199 5.74052C6.93695 5.73556 6.94191 5.7306 6.94687 5.72565C6.95182 5.72069 6.95678 5.71573 6.96174 5.71077C6.9667 5.70581 6.97166 5.70085 6.97662 5.69589C6.98158 5.69093 6.98655 5.68596 6.99151 5.681C6.99647 5.67604 7.00144 5.67107 7.0064 5.66611C7.01137 5.66114 7.01633 5.65618 7.0213 5.65121C7.02627 5.64624 7.03124 5.64128 7.0362 5.63631C7.04117 5.63134 7.04614 5.62637 7.05111 5.6214C7.05608 5.61643 7.06106 5.61146 7.06603 5.60648C7.071 5.60151 7.07598 5.59654 7.08095 5.59156C7.08593 5.58659 7.0909 5.58161 7.09588 5.57663C7.10086 5.57166 7.10583 5.56668 7.11081 5.5617C7.11579 5.55672 7.12077 5.55174 7.12575 5.54676C7.13073 5.54178 7.13572 5.53679 7.1407 5.53181C7.14568 5.52683 7.15067 5.52184 7.15565 5.51686C7.16064 5.51187 7.16563 5.50688 7.17062 5.5019C7.1756 5.49691 7.18059 5.49192 7.18558 5.48693C7.19057 5.48194 7.19557 5.47695 7.20056 5.47195C7.20555 5.46696 7.21054 5.46197 7.21554 5.45697C7.22054 5.45198 7.22553 5.44698 7.23053 5.44198C7.23553 5.43698 7.24053 5.43199 7.24553 5.42698C7.25053 5.42198 7.25553 5.41698 7.26053 5.41198C7.26553 5.40698 7.27054 5.40197 7.27554 5.39697C7.28055 5.39196 7.28556 5.38696 7.29056 5.38195C7.29557 5.37694 7.30058 5.37193 7.30559 5.36692C7.3106 5.36191 7.31561 5.3569 7.32063 5.35188C7.32564 5.34687 7.33066 5.34186 7.33567 5.33684C7.34069 5.33182 7.34571 5.3268 7.35073 5.32179C7.35574 5.31677 7.36076 5.31175 7.36579 5.30672C7.37081 5.3017 7.37583 5.29668 7.38086 5.29165C7.38588 5.28663 7.39091 5.2816 7.39594 5.27658C7.40096 5.27155 7.40599 5.26652 7.41102 5.26149C7.41605 5.25646 7.42109 5.25142 7.42612 5.24639C7.43115 5.24136 7.43619 5.23632 7.44123 5.23129C7.44626 5.22625 7.4513 5.22121 7.45634 5.21617C7.46138 5.21113 7.46642 5.20609 7.47147 5.20105C7.47651 5.196 7.48155 5.19096 7.4866 5.18591C7.49165 5.18087 7.49669 5.17582 7.50174 5.17077C7.50679 5.16572 7.51184 5.16067 7.5169 5.15561C7.52195 5.15056 7.527 5.14551 7.53206 5.14045C7.53712 5.13539 7.54217 5.13034 7.54723 5.12528C7.55229 5.12022 7.55735 5.11516 7.56242 5.11009C7.56748 5.10503 7.57254 5.09997 7.57761 5.0949C7.58268 5.08983 7.58775 5.08477 7.59282 5.0797C7.59788 5.07463 7.60296 5.06955 7.60803 5.06448C7.6131 5.05941 7.61818 5.05433 7.62326 5.04926C7.62833 5.04418 7.63341 5.0391 7.63849 5.03402C7.64357 5.02894 7.64865 5.02386 7.65374 5.01877C7.65882 5.01369 7.66391 5.0086 7.669 5.00351C7.67408 4.99843 7.67917 4.99334 7.68427 4.98825C7.68936 4.98315 7.69445 4.97806 7.69955 4.97296C7.70464 4.96787 7.70974 4.96277 7.71484 4.95767C7.71994 4.95257 7.72504 4.94747 7.73014 4.94237C7.73525 4.93727 7.74035 4.93216 7.74546 4.92705C7.75056 4.92195 7.75567 4.91684 7.76078 4.91173C7.7659 4.90662 7.77101 4.9015 7.77612 4.89639C7.78124 4.89127 7.78636 4.88616 7.79147 4.88104C7.79659 4.87592 7.80171 4.8708 7.80684 4.86567C7.81196 4.86055 7.81709 4.85543 7.82221 4.8503C7.82734 4.84517 7.83247 4.84004 7.8376 4.83491C7.84273 4.82978 7.84787 4.82465 7.853 4.81951C7.85814 4.81437 7.86328 4.80924 7.86841 4.8041C7.87355 4.79896 7.8787 4.79381 7.88384 4.78867C7.88899 4.78353 7.89413 4.77838 7.89928 4.77323C7.90443 4.76808 7.90958 4.76293 7.91473 4.75778C7.91988 4.75263 7.92504 4.74747 7.9302 4.74231C7.93535 4.73716 7.94051 4.732 7.94568 4.72684C7.95084 4.72167 7.956 4.71651 7.96117 4.71134C7.96633 4.70618 7.9715 4.70101 7.97667 4.69584C7.98184 4.69067 7.98702 4.68549 7.99219 4.68032C7.99737 4.67514 8.00255 4.66997 8.00773 4.66479C8.01291 4.65961 8.01809 4.65442 8.02327 4.64924C8.02846 4.64405 8.03364 4.63887 8.03883 4.63368C8.04402 4.62849 8.04922 4.6233 8.05441 4.6181C8.0596 4.61291 8.0648 4.60771 8.07 4.60251C8.0752 4.59731 8.0804 4.59211 8.0856 4.58691C8.09081 4.5817 8.09601 4.5765 8.10122 4.57129C8.10643 4.56608 8.11164 4.56087 8.11686 4.55566C8.12207 4.55044 8.12729 4.54523 8.1325 4.54001C8.13772 4.53479 8.14294 4.52957 8.14817 4.52434C8.15339 4.51912 8.15862 4.51389 8.16385 4.50867C8.16907 4.50344 8.17431 4.49821 8.17954 4.49297C8.18477 4.48774 8.19001 4.4825 8.19525 4.47726C8.20049 4.47202 8.20573 4.46678 8.21097 4.46154C8.21622 4.45629 8.22146 4.45105 8.22671 4.4458C8.23196 4.44055 8.23721 4.4353 8.24247 4.43004C8.24772 4.42479 8.25298 4.41953 8.25824 4.41427C8.2635 4.40901 8.26876 4.40375 8.27403 4.39848C8.27929 4.39322 8.28456 4.38795 8.28983 4.38268C8.2951 4.37741 8.30038 4.37213 8.30565 4.36686C8.31093 4.36158 8.31621 4.3563 8.32149 4.35102C8.32677 4.34574 8.33206 4.34046 8.33734 4.33517C8.34263 4.32988 8.34792 4.32459 8.35321 4.3193C8.3585 4.31401 8.3638 4.30871 8.3691 4.30341C8.3744 4.29811 8.3797 4.29281 8.385 4.28751C8.39031 4.28221 8.39561 4.2769 8.40092 4.27159C8.40623 4.26628 8.41154 4.26097 8.41686 4.25565C8.42217 4.25034 8.42749 4.24502 8.43281 4.2397C8.43813 4.23438 8.44346 4.22905 8.44879 4.22373C8.45411 4.2184 8.45944 4.21307 8.46478 4.20774C8.47011 4.2024 8.47544 4.19707 8.48078 4.19173C8.48612 4.18639 8.49146 4.18105 8.49681 4.1757C8.50215 4.17036 8.5075 4.16501 8.51285 4.15966C8.5182 4.15431 8.52355 4.14896 8.52891 4.1436C8.53427 4.13824 8.53963 4.13288 8.54499 4.12752C8.55035 4.12216 8.55572 4.11679 8.56109 4.11142C8.56646 4.10606 8.57183 4.10068 8.5772 4.09531C8.58258 4.08993 8.58796 4.08456 8.59334 4.07917C8.59872 4.07379 8.6041 4.06841 8.60949 4.06302C8.61488 4.05763 8.62027 4.05224 8.62566 4.04685C8.63106 4.04146 8.63645 4.03606 8.64185 4.03066C8.64725 4.02526 8.65266 4.01986 8.65806 4.01445C8.66347 4.00904 8.66888 4.00363 8.67429 3.99822C8.6797 3.99281 8.68512 3.98739 8.69054 3.98197C8.69596 3.97655 8.70138 3.97113 8.70681 3.96571C8.71223 3.96028 8.71766 3.95485 8.72309 3.94942C8.72853 3.94399 8.73396 3.93855 8.7394 3.93311C8.74484 3.92767 8.75028 3.92223 8.75573 3.91679C8.76117 3.91134 8.76662 3.90589 8.77207 3.90044C8.77752 3.89499 8.78298 3.88953 8.78844 3.88407C8.7939 3.87861 8.79936 3.87315 8.80483 3.86769C8.81029 3.86222 8.81576 3.85675 8.82123 3.85128C8.8267 3.84581 8.83218 3.84033 8.83766 3.83485C8.84314 3.82937 8.84862 3.82389 8.85411 3.8184C8.85959 3.81292 8.86508 3.80743 8.87058 3.80194C8.87607 3.79644 8.88157 3.79095 8.88707 3.78545C8.89257 3.77995 8.89807 3.77444 8.90358 3.76894C8.90908 3.76343 8.91459 3.75792 8.92011 3.7524C8.92562 3.74689 8.93114 3.74137 8.93666 3.73585C8.94218 3.73033 8.94771 3.72481 8.95323 3.71928C8.95876 3.71375 8.96429 3.70822 8.96983 3.70268C8.97536 3.69715 8.9809 3.69161 8.98645 3.68607C8.99199 3.68052 8.99754 3.67498 9.00308 3.66943C9.00863 3.66388 9.01419 3.65832 9.01975 3.65277C9.0253 3.64721 9.03086 3.64165 9.03643 3.63608C9.04199 3.63052 9.04756 3.62495 9.05313 3.61938C9.0587 3.61381 9.06428 3.60823 9.06986 3.60265C9.07544 3.59707 9.08102 3.59149 9.08661 3.5859C9.09219 3.58032 9.09779 3.57473 9.10338 3.56913C9.10897 3.56354 9.11457 3.55794 9.12017 3.55234C9.12578 3.54674 9.13138 3.54113 9.13699 3.53552C9.1426 3.52991 9.14821 3.5243 9.15383 3.51868C9.15945 3.51306 9.16507 3.50744 9.17069 3.50182C9.17632 3.49619 9.18195 3.49057 9.18758 3.48493C9.19321 3.4793 9.19885 3.47366 9.20449 3.46802C9.21013 3.46238 9.21577 3.45674 9.22142 3.45109C9.22707 3.44544 9.23272 3.43979 9.23838 3.43414C9.24403 3.42848 9.24969 3.42282 9.25536 3.41716C9.26102 3.41149 9.26669 3.40582 9.27236 3.40015C9.27803 3.39448 9.28371 3.38881 9.28939 3.38313C9.29506 3.37745 9.30075 3.37176 9.30644 3.36608C9.31212 3.36039 9.31782 3.3547 9.32351 3.349C9.32921 3.3433 9.33491 3.3376 9.34061 3.3319C9.34631 3.3262 9.35202 3.32049 9.35773 3.31478C9.36345 3.30907 9.36916 3.30335 9.37488 3.29763C9.3806 3.29191 9.38633 3.28618 9.39206 3.28046C9.39778 3.27473 9.40352 3.269 9.40925 3.26326C9.41499 3.25752 9.42073 3.25178 9.42648 3.24604C9.43222 3.24029 9.43797 3.23454 9.44372 3.22879C9.44948 3.22304 9.45523 3.21728 9.461 3.21152C9.46676 3.20575 9.47252 3.19999 9.47829 3.19422C9.48406 3.18845 9.48984 3.18267 9.49562 3.1769C9.5014 3.17112 9.50718 3.16533 9.51297 3.15955C9.51875 3.15376 9.52454 3.14797 9.53034 3.14217C9.53614 3.13638 9.54194 3.13058 9.54774 3.12477C9.55354 3.11897 9.55935 3.11316 9.56517 3.10735C9.57098 3.10153 9.5768 3.09572 9.58262 3.08989C9.58844 3.08407 9.59427 3.07825 9.6001 3.07242C9.60593 3.06659 9.61176 3.06075 9.6176 3.05491C9.62344 3.04907 9.62928 3.04323 9.63513 3.03738C9.64098 3.03153 9.64683 3.02568 9.65269 3.01982C9.65855 3.01397 9.66441 3.0081 9.67027 3.00224C9.67614 2.99637 9.68201 2.9905 9.68788 2.98463C9.69376 2.97875 9.69964 2.97287 9.70552 2.96699C9.7114 2.96111 9.71729 2.95522 9.72319 2.94933C9.72908 2.94343 9.73498 2.93754 9.74088 2.93163C9.74678 2.92573 9.75269 2.91983 9.7586 2.91391C9.76451 2.908 9.77042 2.90209 9.77634 2.89617C9.78226 2.89025 9.78819 2.88432 9.79412 2.87839C9.80005 2.87246 9.80598 2.86653 9.81192 2.86059C9.81786 2.85465 9.8238 2.84871 9.82975 2.84276C9.8357 2.83682 9.84165 2.83086 9.84761 2.82491C9.85356 2.81895 9.85952 2.81299 9.86549 2.80702C9.87146 2.80105 9.87743 2.79508 9.88341 2.78911C9.88938 2.78313 9.89536 2.77715 9.90135 2.77116C9.90733 2.76518 9.91332 2.75919 9.91932 2.75319C9.92531 2.7472 9.93131 2.7412 9.93732 2.73519C9.94332 2.72919 9.94933 2.72318 9.95534 2.71717C9.96136 2.71115 9.96738 2.70513 9.9734 2.69911C9.97942 2.69309 9.98545 2.68706 9.99149 2.68103C9.99752 2.67499 10.0036 2.66895 10.0096 2.66291C10.0156 2.65687 10.0217 2.65082 10.0277 2.64477C10.0338 2.63871 10.0399 2.63266 10.0459 2.62659C10.052 2.62053 10.058 2.61446 10.0641 2.60839C10.0702 2.60232 10.0763 2.59624 10.0824 2.59016C10.0884 2.58408 10.0945 2.57799 10.1006 2.5719C10.1067 2.56581 10.1128 2.55971 10.1189 2.55361C10.125 2.5475 10.1311 2.5414 10.1372 2.53529C10.1433 2.52917 10.1495 2.52306 10.1556 2.51693C10.1617 2.51081 10.1678 2.50468 10.174 2.49855C10.1801 2.49242 10.1862 2.48628 10.1924 2.48014C10.1985 2.474 10.2047 2.46785 10.2108 2.4617C10.217 2.45554 10.2231 2.44939 10.2293 2.44322C10.2355 2.43706 10.2416 2.43089 10.2478 2.42472C10.254 2.41855 10.2601 2.41237 10.2663 2.40619C10.2725 2.4 10.2787 2.39381 10.2849 2.38762C10.2911 2.38143 10.2973 2.37523 10.3035 2.36902C10.3097 2.36282 10.3159 2.35661 10.3221 2.3504C10.3283 2.34418 10.3346 2.33796 10.3408 2.33174C10.347 2.32551 10.3532 2.31928 10.3595 2.31305C10.3657 2.30681 10.3719 2.30057 10.3782 2.29432C10.3844 2.28808 10.3907 2.28183 10.3969 2.27557C10.4032 2.26931 10.4095 2.26305 10.4157 2.25678C10.422 2.25052 10.4283 2.24424 10.4345 2.23796C10.4408 2.23169 10.4471 2.2254 10.4534 2.21911C10.4597 2.21283 10.466 2.20653 10.4723 2.20023C10.4786 2.19393 10.4849 2.18763 10.4912 2.18132L9.2184 0.908526C9.21209 0.914836 9.20579 0.921141 9.19949 0.92744C9.19319 0.93374 9.18689 0.940034 9.1806 0.946323C9.17432 0.952611 9.16803 0.958895 9.16175 0.965173C9.15548 0.971451 9.1492 0.977723 9.14294 0.983991C9.13667 0.990258 9.13041 0.99652 9.12415 1.00278C9.11789 1.00903 9.11164 1.01528 9.1054 1.02153C9.09915 1.02778 9.09291 1.03402 9.08667 1.04025C9.08044 1.04649 9.07421 1.05272 9.06798 1.05894C9.06176 1.06517 9.05554 1.07139 9.04932 1.0776C9.04311 1.08382 9.0369 1.09003 9.0307 1.09623C9.02449 1.10244 9.01829 1.10863 9.0121 1.11483C9.00591 1.12102 8.99972 1.12721 8.99353 1.13339C8.98735 1.13958 8.98117 1.14576 8.975 1.15193C8.96883 1.1581 8.96266 1.16427 8.9565 1.17043C8.95033 1.17659 8.94417 1.18275 8.93802 1.18891C8.93187 1.19506 8.92572 1.20121 8.91958 1.20735C8.91344 1.21349 8.9073 1.21963 8.90117 1.22576C8.89504 1.23189 8.88891 1.23802 8.88279 1.24414C8.87666 1.25026 8.87055 1.25638 8.86443 1.26249C8.85832 1.26861 8.85221 1.27471 8.84611 1.28081C8.84001 1.28692 8.83391 1.29301 8.82782 1.29911C8.82173 1.3052 8.81564 1.31129 8.80956 1.31737C8.80348 1.32345 8.7974 1.32953 8.79133 1.3356C8.78526 1.34167 8.77919 1.34774 8.77313 1.3538C8.76706 1.35986 8.761 1.36592 8.75495 1.37197C8.7489 1.37803 8.74285 1.38408 8.73681 1.39012C8.73077 1.39616 8.72473 1.4022 8.71869 1.40823C8.71266 1.41427 8.70663 1.42029 8.70061 1.42632C8.69458 1.43234 8.68857 1.43836 8.68255 1.44437C8.67654 1.45039 8.67053 1.4564 8.66452 1.4624C8.65852 1.46841 8.65252 1.47441 8.64653 1.4804C8.64053 1.4864 8.63454 1.49239 8.62856 1.49837C8.62257 1.50436 8.61659 1.51034 8.61061 1.51631C8.60464 1.52229 8.59867 1.52826 8.5927 1.53423C8.58673 1.54019 8.58077 1.54616 8.57481 1.55211C8.56886 1.55807 8.5629 1.56402 8.55696 1.56997C8.55101 1.57592 8.54507 1.58186 8.53913 1.5878C8.53319 1.59374 8.52725 1.59967 8.52133 1.6056C8.5154 1.61153 8.50947 1.61746 8.50355 1.62338C8.49763 1.6293 8.49172 1.63521 8.4858 1.64112C8.47989 1.64703 8.47399 1.65294 8.46809 1.65884C8.46218 1.66474 8.45629 1.67064 8.45039 1.67653C8.4445 1.68243 8.43861 1.68831 8.43273 1.6942C8.42684 1.70008 8.42097 1.70596 8.41509 1.71184C8.40922 1.71771 8.40335 1.72358 8.39748 1.72945C8.39161 1.73531 8.38575 1.74117 8.3799 1.74703C8.37404 1.75289 8.36819 1.75874 8.36234 1.76459C8.35649 1.77044 8.35065 1.77628 8.34481 1.78212C8.33897 1.78796 8.33313 1.79379 8.3273 1.79962C8.32147 1.80545 8.31565 1.81128 8.30983 1.8171C8.304 1.82292 8.29819 1.82874 8.29237 1.83455C8.28656 1.84037 8.28075 1.84618 8.27495 1.85198C8.26914 1.85778 8.26334 1.86358 8.25755 1.86938C8.25175 1.87518 8.24596 1.88097 8.24017 1.88675C8.23439 1.89254 8.2286 1.89832 8.22282 1.9041C8.21705 1.90988 8.21127 1.91566 8.2055 1.92143C8.19973 1.9272 8.19397 1.93296 8.1882 1.93872C8.18244 1.94449 8.17668 1.95024 8.17093 1.956C8.16518 1.96175 8.15943 1.9675 8.15368 1.97324C8.14794 1.97899 8.1422 1.98473 8.13646 1.99047C8.13072 1.9962 8.12499 2.00194 8.11926 2.00766C8.11353 2.01339 8.10781 2.01912 8.10209 2.02484C8.09637 2.03056 8.09065 2.03627 8.08494 2.04198C8.07923 2.0477 8.07352 2.0534 8.06782 2.05911C8.06211 2.06481 8.05641 2.07051 8.05072 2.07621C8.04502 2.0819 8.03933 2.0876 8.03364 2.09328C8.02796 2.09897 8.02227 2.10465 8.01659 2.11033C8.01091 2.11601 8.00524 2.12169 7.99957 2.12736C7.99389 2.13303 7.98823 2.1387 7.98256 2.14436C7.9769 2.15003 7.97124 2.15569 7.96558 2.16134C7.95993 2.167 7.95428 2.17265 7.94863 2.1783C7.94298 2.18395 7.93734 2.18959 7.9317 2.19523C7.92606 2.20087 7.92042 2.20651 7.91479 2.21214C7.90915 2.21777 7.90353 2.2234 7.8979 2.22903C7.89228 2.23465 7.88666 2.24027 7.88104 2.24589C7.87542 2.25151 7.86981 2.25712 7.8642 2.26273C7.85859 2.26834 7.85298 2.27394 7.84738 2.27955C7.84178 2.28515 7.83618 2.29075 7.83059 2.29634C7.82499 2.30193 7.8194 2.30752 7.81382 2.31311C7.80823 2.3187 7.80265 2.32428 7.79707 2.32986C7.79149 2.33544 7.78591 2.34102 7.78034 2.34659C7.77477 2.35216 7.7692 2.35773 7.76364 2.36329C7.75807 2.36886 7.75251 2.37442 7.74695 2.37997C7.7414 2.38553 7.73584 2.39108 7.73029 2.39663C7.72474 2.40218 7.7192 2.40773 7.71365 2.41327C7.70811 2.41882 7.70257 2.42435 7.69704 2.42989C7.6915 2.43543 7.68597 2.44096 7.68044 2.44649C7.67491 2.45201 7.66939 2.45754 7.66387 2.46306C7.65835 2.46858 7.65283 2.4741 7.64732 2.47961C7.6418 2.48513 7.63629 2.49064 7.63078 2.49614C7.62528 2.50165 7.61977 2.50715 7.61427 2.51265C7.60877 2.51815 7.60328 2.52365 7.59778 2.52914C7.59229 2.53464 7.5868 2.54013 7.58132 2.54561C7.57583 2.5511 7.57035 2.55658 7.56487 2.56206C7.55939 2.56754 7.55391 2.57301 7.54844 2.57849C7.54297 2.58396 7.5375 2.58943 7.53203 2.59489C7.52657 2.60036 7.52111 2.60582 7.51565 2.61128C7.51019 2.61674 7.50473 2.62219 7.49928 2.62765C7.49383 2.6331 7.48838 2.63855 7.48293 2.64399C7.47749 2.64944 7.47205 2.65488 7.46661 2.66032C7.46117 2.66576 7.45573 2.67119 7.4503 2.67663C7.44487 2.68206 7.43944 2.68749 7.43401 2.69291C7.42859 2.69834 7.42317 2.70376 7.41775 2.70918C7.41233 2.7146 7.40691 2.72002 7.4015 2.72543C7.39609 2.73084 7.39068 2.73625 7.38527 2.74166C7.37986 2.74706 7.37446 2.75247 7.36906 2.75787C7.36366 2.76327 7.35826 2.76866 7.35287 2.77406C7.34748 2.77945 7.34209 2.78484 7.3367 2.79023C7.33131 2.79562 7.32593 2.801 7.32054 2.80638C7.31516 2.81176 7.30979 2.81714 7.30441 2.82252C7.29904 2.82789 7.29366 2.83326 7.2883 2.83863C7.28293 2.844 7.27756 2.84937 7.2722 2.85473C7.26684 2.86009 7.26148 2.86545 7.25612 2.87081C7.25076 2.87616 7.24541 2.88152 7.24006 2.88687C7.23471 2.89222 7.22936 2.89757 7.22402 2.90291C7.21867 2.90826 7.21333 2.9136 7.20799 2.91894C7.20265 2.92428 7.19732 2.92961 7.19198 2.93494C7.18665 2.94028 7.18132 2.94561 7.17599 2.95093C7.17067 2.95626 7.16534 2.96158 7.16002 2.96691C7.1547 2.97223 7.14938 2.97754 7.14407 2.98286C7.13875 2.98818 7.13344 2.99349 7.12813 2.9988C7.12282 3.00411 7.11751 3.00941 7.11221 3.01472C7.10691 3.02002 7.1016 3.02532 7.09631 3.03062C7.09101 3.03592 7.08571 3.04121 7.08042 3.04651C7.07513 3.0518 7.06984 3.05709 7.06455 3.06238C7.05926 3.06766 7.05398 3.07295 7.0487 3.07823C7.04342 3.08351 7.03814 3.08879 7.03286 3.09407C7.02758 3.09934 7.02231 3.10462 7.01704 3.10989C7.01177 3.11516 7.0065 3.12042 7.00124 3.12569C6.99597 3.13096 6.99071 3.13622 6.98545 3.14148C6.98019 3.14674 6.97493 3.152 6.96968 3.15725C6.96442 3.1625 6.95917 3.16776 6.95392 3.17301C6.94867 3.17825 6.94343 3.1835 6.93818 3.18875C6.93294 3.19399 6.9277 3.19923 6.92246 3.20447C6.91722 3.20971 6.91198 3.21495 6.90675 3.22018C6.90151 3.22541 6.89628 3.23064 6.89105 3.23587C6.88583 3.2411 6.8806 3.24633 6.87538 3.25155C6.87015 3.25678 6.86493 3.262 6.85971 3.26721C6.85449 3.27243 6.84928 3.27765 6.84406 3.28286C6.83885 3.28808 6.83364 3.29329 6.82843 3.2985C6.82322 3.30371 6.81802 3.30891 6.81281 3.31412C6.80761 3.31932 6.80241 3.32452 6.79721 3.32972C6.79201 3.33492 6.78681 3.34012 6.78162 3.34531C6.77642 3.3505 6.77123 3.3557 6.76604 3.36088C6.76085 3.36607 6.75567 3.37126 6.75048 3.37645C6.7453 3.38163 6.74011 3.38681 6.73493 3.39199C6.72975 3.39717 6.72458 3.40235 6.7194 3.40753C6.71423 3.4127 6.70905 3.41787 6.70388 3.42305C6.69871 3.42822 6.69354 3.43338 6.68838 3.43855C6.68321 3.44372 6.67805 3.44888 6.67288 3.45404C6.66772 3.45921 6.66256 3.46436 6.65741 3.46952C6.65225 3.47468 6.64709 3.47983 6.64194 3.48499C6.63679 3.49014 6.63164 3.49529 6.62649 3.50044C6.62134 3.50559 6.61619 3.51073 6.61105 3.51588C6.6059 3.52102 6.60076 3.52616 6.59562 3.5313C6.59048 3.53644 6.58535 3.54158 6.58021 3.54672C6.57507 3.55185 6.56994 3.55699 6.56481 3.56212C6.55968 3.56725 6.55455 3.57238 6.54942 3.57751C6.54429 3.58263 6.53917 3.58776 6.53405 3.59288C6.52892 3.598 6.5238 3.60313 6.51868 3.60824C6.51356 3.61336 6.50845 3.61848 6.50333 3.6236C6.49822 3.62871 6.4931 3.63382 6.48799 3.63893C6.48288 3.64405 6.47777 3.64915 6.47267 3.65426C6.46756 3.65937 6.46245 3.66447 6.45735 3.66958C6.45225 3.67468 6.44715 3.67978 6.44205 3.68488C6.43695 3.68998 6.43185 3.69508 6.42675 3.70017C6.42166 3.70527 6.41657 3.71036 6.41147 3.71545C6.40638 3.72054 6.40129 3.72563 6.3962 3.73072C6.39112 3.73581 6.38603 3.7409 6.38095 3.74598C6.37586 3.75106 6.37078 3.75615 6.3657 3.76123C6.36062 3.76631 6.35554 3.77139 6.35046 3.77646C6.34539 3.78154 6.34031 3.78662 6.33524 3.79169C6.33016 3.79676 6.32509 3.80183 6.32002 3.8069C6.31495 3.81197 6.30989 3.81704 6.30482 3.82211C6.29975 3.82717 6.29469 3.83224 6.28962 3.8373C6.28456 3.84237 6.2795 3.84743 6.27444 3.85249C6.26938 3.85755 6.26432 3.8626 6.25927 3.86766C6.25421 3.87272 6.24916 3.87777 6.2441 3.88282C6.23905 3.88788 6.234 3.89293 6.22895 3.89798C6.2239 3.90303 6.21885 3.90807 6.21381 3.91312C6.20876 3.91817 6.20372 3.92321 6.19867 3.92825C6.19363 3.9333 6.18859 3.93834 6.18355 3.94338C6.17851 3.94842 6.17347 3.95346 6.16843 3.95849C6.1634 3.96353 6.15836 3.96857 6.15333 3.9736C6.14829 3.97863 6.14326 3.98367 6.13823 3.9887C6.1332 3.99373 6.12817 3.99876 6.12314 4.00378C6.11812 4.00881 6.11309 4.01384 6.10806 4.01886C6.10304 4.02389 6.09802 4.02891 6.09299 4.03393C6.08797 4.03895 6.08295 4.04397 6.07793 4.04899C6.07291 4.05401 6.0679 4.05903 6.06288 4.06405C6.05786 4.06906 6.05285 4.07408 6.04784 4.07909C6.04282 4.0841 6.03781 4.08912 6.0328 4.09413C6.02779 4.09914 6.02278 4.10415 6.01777 4.10916C6.01276 4.11416 6.00776 4.11917 6.00275 4.12418C5.99775 4.12918 5.99274 4.13419 5.98774 4.13919C5.98274 4.14419 5.97773 4.14919 5.97273 4.15419C5.96773 4.15919 5.96273 4.16419 5.95774 4.16919C5.95274 4.17419 5.94774 4.17918 5.94275 4.18418C5.93775 4.18917 5.93276 4.19417 5.92777 4.19916C5.92277 4.20415 5.91778 4.20915 5.91279 4.21414C5.9078 4.21913 5.90281 4.22412 5.89782 4.2291C5.89283 4.23409 5.88785 4.23908 5.88286 4.24406C5.87788 4.24905 5.87289 4.25404 5.86791 4.25902C5.86292 4.264 5.85794 4.26898 5.85296 4.27397C5.84798 4.27895 5.843 4.28393 5.83802 4.28891C5.83304 4.29389 5.82806 4.29886 5.82309 4.30384C5.81811 4.30882 5.81313 4.31379 5.80816 4.31877C5.80318 4.32374 5.79821 4.32872 5.79324 4.33369C5.78826 4.33866 5.78329 4.34363 5.77832 4.34861C5.77335 4.35358 5.76838 4.35855 5.76341 4.36351C5.75844 4.36848 5.75348 4.37345 5.74851 4.37842C5.74354 4.38339 5.73858 4.38835 5.73361 4.39332C5.72865 4.39828 5.72368 4.40325 5.71872 4.40821C5.71375 4.41317 5.70879 4.41813 5.70383 4.4231C5.69887 4.42806 5.69391 4.43302 5.68895 4.43798C5.68399 4.44294 5.67903 4.4479 5.67407 4.45285C5.66912 4.45781 5.66416 4.46277 5.6592 4.46773C5.65425 4.47268 5.64929 4.47764 5.64434 4.48259C5.63938 4.48755 5.63443 4.4925 5.62947 4.49745C5.62452 4.50241 5.61957 4.50736 5.61462 4.51231C5.60967 4.51726 5.60471 4.52221 5.59976 4.52716C5.59481 4.53211 5.58987 4.53706 5.58492 4.54201C5.57997 4.54696 5.57502 4.55191 5.57007 4.55685C5.56513 4.5618 5.56018 4.56675 5.55523 4.57169C5.55029 4.57664 5.54534 4.58158 5.5404 4.58653C5.53545 4.59147 5.53051 4.59642 5.52557 4.60136C5.52062 4.6063 5.51568 4.61125 5.51074 4.61619C5.5058 4.62113 5.50086 4.62607 5.49592 4.63101C5.49098 4.63595 5.48603 4.64089 5.4811 4.64583C5.47616 4.65077 5.47122 4.65571 5.46628 4.66065C5.46134 4.66559 5.4564 4.67052 5.45147 4.67546C5.44653 4.6804 5.44159 4.68534 5.43665 4.69027C5.43172 4.69521 5.42678 4.70014 5.42185 4.70508C5.41691 4.71002 5.41198 4.71495 5.40704 4.71988C5.40211 4.72482 5.39717 4.72975 5.39224 4.73469C5.38731 4.73962 5.38237 4.74455 5.37744 4.74948C5.37251 4.75442 5.36758 4.75935 5.36265 4.76428C5.35771 4.76921 5.35278 4.77414 5.34785 4.77908C5.34292 4.78401 5.33799 4.78894 5.33306 4.79387C5.32813 4.7988 5.3232 4.80373 5.31827 4.80866C5.31334 4.81359 5.30841 4.81852 5.30348 4.82344C5.29855 4.82837 5.29363 4.8333 5.2887 4.83823C5.28377 4.84316 5.27884 4.84809 5.27391 4.85301C5.26899 4.85794 5.26406 4.86287 5.25913 4.8678C5.2542 4.87272 5.24928 4.87765 5.24435 4.88258C5.23942 4.8875 5.2345 4.89243 5.22957 4.89736C5.22464 4.90228 5.21972 4.90721 5.21479 4.91213C5.20987 4.91706 5.20494 4.92199 5.20002 4.92691C5.19509 4.93184 5.19017 4.93676 5.18524 4.94169C5.18032 4.94661 5.17539 4.95154 5.17047 4.95646C5.16554 4.96139 5.16062 4.96631 5.15569 4.97124C5.15077 4.97616 5.14584 4.98109 5.14092 4.98601C5.13599 4.99093 5.13107 4.99586 5.12614 5.00078C5.12122 5.00571 5.1163 5.01063 5.11137 5.01556C5.10645 5.02048 5.10152 5.0254 5.0966 5.03033C5.09167 5.03525 5.08675 5.04018 5.08183 5.0451C5.0769 5.05002 5.07198 5.05495 5.06705 5.05987C5.06213 5.0648 5.05721 5.06972 5.05228 5.07465C5.04736 5.07957 5.04243 5.08449 5.03751 5.08942C5.03259 5.09434 5.02766 5.09927 5.02274 5.10419C5.01781 5.10912 5.01289 5.11404 5.00796 5.11896C5.00304 5.12389 4.99811 5.12881 4.99319 5.13374C4.98826 5.13866 4.98334 5.14359 4.97841 5.14851C4.97349 5.15344 4.96856 5.15836 4.96364 5.16329C4.95871 5.16822 4.95379 5.17314 4.94886 5.17807C4.94393 5.18299 4.93901 5.18792 4.93408 5.19284C4.92916 5.19777 4.92423 5.2027 4.9193 5.20762C4.91438 5.21255 4.90945 5.21748 4.90452 5.2224C4.8996 5.22733 4.89467 5.23226 4.88974 5.23719C4.88481 5.24211 4.87988 5.24704 4.87496 5.25197C4.87003 5.2569 4.8651 5.26183 4.86017 5.26676C4.85524 5.27169 4.85031 5.27661 4.84538 5.28154C4.84045 5.28647 4.83552 5.2914 4.83059 5.29633C4.82566 5.30126 4.82073 5.30619 4.8158 5.31113C4.81087 5.31606 4.80594 5.32099 4.80101 5.32592C4.79608 5.33085 4.79114 5.33578 4.78621 5.34072C4.78128 5.34565 4.77635 5.35058 4.77141 5.35551C4.76648 5.36045 4.76154 5.36538 4.75661 5.37032C4.75168 5.37525 4.74674 5.38019 4.74181 5.38512C4.73687 5.39006 4.73194 5.39499 4.727 5.39993C4.72206 5.40486 4.71713 5.4098 4.71219 5.41474C4.70725 5.41968 4.70231 5.42461 4.69737 5.42955C4.69244 5.43449 4.6875 5.43943 4.68256 5.44437C4.67762 5.44931 4.67268 5.45425 4.66774 5.45919C4.6628 5.46413 4.65786 5.46907 4.65291 5.47401C4.64797 5.47896 4.64303 5.4839 4.63809 5.48884C4.63314 5.49378 4.6282 5.49873 4.62325 5.50367C4.61831 5.50862 4.61337 5.51356 4.60842 5.51851C4.60347 5.52345 4.59853 5.5284 4.59358 5.53335C4.58863 5.53829 4.58369 5.54324 4.57874 5.54819C4.57379 5.55314 4.56884 5.55809 4.56389 5.56304C4.55894 5.56799 4.55399 5.57294 4.54904 5.57789C4.54408 5.58284 4.53913 5.58779 4.53418 5.59275C4.52923 5.5977 4.52427 5.60265 4.51932 5.60761C4.51436 5.61256 4.50941 5.61752 4.50445 5.62248C4.4995 5.62743 4.49454 5.63239 4.48958 5.63735C4.48462 5.6423 4.47966 5.64726 4.4747 5.65222C4.46974 5.65718 4.46478 5.66214 4.45982 5.6671C4.45486 5.67207 4.4499 5.67703 4.44494 5.68199C4.43997 5.68695 4.43501 5.69192 4.43004 5.69688C4.42508 5.70185 4.42011 5.70681 4.41515 5.71178C4.41018 5.71675 4.40521 5.72172 4.40024 5.72669C4.39527 5.73165 4.3903 5.73662 4.38533 5.7416C4.38036 5.74657 4.37539 5.75154 4.37042 5.75651C4.36544 5.76148 4.36047 5.76646 4.35549 5.77143C4.35052 5.77641 4.34554 5.78138 4.34057 5.78636C4.33559 5.79134 4.33061 5.79631 4.32563 5.80129C4.32065 5.80627 4.31567 5.81125 4.31069 5.81623C4.30571 5.82122 4.30073 5.8262 4.29575 5.83118C4.29076 5.83617 4.28578 5.84115 4.28079 5.84614C4.27581 5.85112 4.27082 5.85611 4.26583 5.8611C4.26084 5.86608 4.25585 5.87107 4.25086 5.87606C4.24587 5.88106 4.24088 5.88605 4.23589 5.89104C4.23089 5.89603 4.2259 5.90103 4.22091 5.90602C4.21591 5.91102 4.21091 5.91601 4.20592 5.92101C4.20092 5.92601 4.19592 5.93101 4.19092 5.93601C4.18592 5.94101 4.18092 5.94601 4.17591 5.95101C4.17091 5.95602 4.16591 5.96102 4.1609 5.96602C4.1559 5.97103 4.15089 5.97604 4.14588 5.98104C4.14087 5.98605 4.13586 5.99106 4.13085 5.99607C4.12584 6.00108 4.12083 6.0061 4.11582 6.01111C4.1108 6.01612 4.10579 6.02114 4.10077 6.02615C4.09576 6.03117 4.09074 6.03619 4.08572 6.04121C4.0807 6.04623 4.07568 6.05125 4.07066 6.05627C4.06564 6.06129 4.06061 6.06631 4.05559 6.07134C4.05056 6.07636 4.04554 6.08139 4.04051 6.08642C4.03548 6.09145 4.03045 6.09647 4.02542 6.10151C4.02039 6.10654 4.01536 6.11157 4.01033 6.1166C4.00529 6.12164 4.00026 6.12667 3.99522 6.13171C3.99018 6.13674 3.98514 6.14178 3.9801 6.14682C3.97506 6.15186 3.97002 6.1569 3.96498 6.16195C3.95994 6.16699 3.95489 6.17203 3.94985 6.17708C3.9448 6.18213 3.93975 6.18718 3.9347 6.19222C3.92965 6.19727 3.9246 6.20233 3.91955 6.20738C3.9145 6.21243 3.90944 6.21749 3.90439 6.22254C3.89933 6.2276 3.89427 6.23266 3.88921 6.23772C3.88415 6.24277 3.87909 6.24784 3.87403 6.2529C3.86897 6.25796 3.8639 6.26303 3.85883 6.26809C3.85377 6.27316 3.8487 6.27823 3.84363 6.2833C3.83856 6.28837 3.83349 6.29344 3.82842 6.29851C3.82334 6.30358 3.81827 6.30866 3.81319 6.31374C3.80811 6.31881 3.80303 6.32389 3.79795 6.32897C3.79287 6.33405 3.78779 6.33914 3.78271 6.34422C3.77762 6.3493 3.77254 6.35439 3.76745 6.35948C3.76236 6.36457 3.75727 6.36966 3.75218 6.37475C3.74709 6.37984 3.74199 6.38493 3.7369 6.39003C3.7318 6.39512 3.72671 6.40022 3.72161 6.40532C3.71651 6.41042 3.71141 6.41552 3.7063 6.42062C3.7012 6.42573 3.6961 6.43083 3.69099 6.43594C3.68588 6.44105 3.68077 6.44615 3.67566 6.45127C3.67055 6.45638 3.66544 6.46149 3.66032 6.4666C3.65521 6.47172 3.65009 6.47684 3.64497 6.48196C3.63985 6.48708 3.63473 6.4922 3.62961 6.49732C3.62448 6.50244 3.61936 6.50757 3.61423 6.51269C3.6091 6.51782 3.60398 6.52295 3.59884 6.52808C3.59371 6.53321 3.58858 6.53835 3.58344 6.54348C3.57831 6.54862 3.57317 6.55376 3.56803 6.5589C3.56289 6.56404 3.55775 6.56918 3.5526 6.57432C3.54746 6.57947 3.54231 6.58461 3.53717 6.58976C3.53202 6.59491 3.52687 6.60006 3.52171 6.60521C3.51656 6.61037 3.51141 6.61552 3.50625 6.62068C3.50109 6.62584 3.49593 6.631 3.49077 6.63616C3.48561 6.64132 3.48044 6.64648 3.47528 6.65165C3.47011 6.65682 3.46494 6.66198 3.45977 6.66715C3.4546 6.67233 3.44943 6.6775 3.44425 6.68267C3.43908 6.68785 3.4339 6.69303 3.42872 6.69821C3.42354 6.70339 3.41836 6.70857 3.41317 6.71375C3.40799 6.71894 3.4028 6.72413 3.39761 6.72932C3.39242 6.73451 3.38723 6.7397 3.38204 6.74489C3.37684 6.75009 3.37164 6.75528 3.36645 6.76048C3.36125 6.76568 3.35605 6.77088 3.35084 6.77609C3.34564 6.78129 3.34043 6.7865 3.33522 6.7917C3.33001 6.79691 3.3248 6.80212 3.31959 6.80734C3.31438 6.81255 3.30916 6.81777 3.30394 6.82299C3.29872 6.8282 3.2935 6.83343 3.28828 6.83865C3.28305 6.84387 3.27783 6.8491 3.2726 6.85433C3.26737 6.85956 3.26214 6.86479 3.25691 6.87002C3.25167 6.87526 3.24644 6.88049 3.2412 6.88573C3.23596 6.89097 3.23072 6.89621 3.22547 6.90145C3.22023 6.9067 3.21498 6.91195 3.20973 6.91719C3.20448 6.92244 3.19923 6.9277 3.19398 6.93295C3.18872 6.93821 3.18346 6.94346 3.1782 6.94872C3.17294 6.95398 3.16768 6.95925 3.16242 6.96451C3.15715 6.96978 3.15188 6.97504 3.14661 6.98031C3.14134 6.98558 3.13607 6.99086 3.13079 6.99613C3.12552 7.00141 3.12024 7.00669 3.11496 7.01197C3.10967 7.01725 3.10439 7.02254 3.0991 7.02782C3.09382 7.03311 3.08853 7.0384 3.08323 7.04369C3.07794 7.04899 3.07265 7.05428 3.06735 7.05958C3.06205 7.06488 3.05675 7.07018 3.05144 7.07548C3.04614 7.08079 3.04083 7.08609 3.03552 7.0914C3.03021 7.09671 3.0249 7.10203 3.01959 7.10734C3.01427 7.11266 3.00895 7.11797 3.00363 7.12329C2.99831 7.12862 2.99299 7.13394 2.98766 7.13927C2.98233 7.14459 2.977 7.14992 2.97167 7.15526C2.96634 7.16059 2.961 7.16593 2.95566 7.17126C2.95032 7.1766 2.94498 7.18194 2.93964 7.18729C2.93429 7.19263 2.92895 7.19798 2.9236 7.20333C2.91824 7.20868 2.91289 7.21404 2.90753 7.21939C2.90218 7.22475 2.89682 7.23011 2.89146 7.23547C2.88609 7.24083 2.88073 7.2462 2.87536 7.25157C2.86999 7.25694 2.86462 7.26231 2.85924 7.26768C2.85387 7.27306 2.84849 7.27844 2.84311 7.28382C2.83773 7.2892 2.83234 7.29458 2.82696 7.29997C2.82157 7.30536 2.81618 7.31075 2.81078 7.31614C2.80539 7.32154 2.79999 7.32693 2.79459 7.33233C2.78919 7.33773 2.78379 7.34314 2.77838 7.34854C2.77298 7.35395 2.76757 7.35936 2.76215 7.36477C2.75674 7.37018 2.75133 7.3756 2.74591 7.38102C2.74049 7.38644 2.73507 7.39186 2.72964 7.39729C2.72421 7.40271 2.71878 7.40814 2.71335 7.41357C2.70792 7.41901 2.70249 7.42444 2.69705 7.42988C2.69161 7.43532 2.68617 7.44076 2.68072 7.44621C2.67527 7.45165 2.66983 7.4571 2.66437 7.46255C2.65892 7.46801 2.65347 7.47346 2.64801 7.47892C2.64255 7.48438 2.63709 7.48984 2.63162 7.49531C2.62615 7.50077 2.62069 7.50624 2.61521 7.51171C2.60974 7.51719 2.60426 7.52266 2.59879 7.52814C2.59331 7.53362 2.58782 7.5391 2.58234 7.54459C2.57685 7.55008 2.57136 7.55556 2.56587 7.56106C2.56038 7.56655 2.55488 7.57205 2.54938 7.57755C2.54388 7.58305 2.53838 7.58855 2.53287 7.59406C2.52736 7.59956 2.52185 7.60507 2.51634 7.61059C2.51082 7.6161 2.50531 7.62162 2.49979 7.62714C2.49426 7.63266 2.48874 7.63819 2.48321 7.64372C2.47768 7.64924 2.47215 7.65478 2.46662 7.66031C2.46108 7.66585 2.45554 7.67139 2.45 7.67693C2.44446 7.68247 2.43891 7.68802 2.43336 7.69357C2.42781 7.69912 2.42226 7.70467 2.4167 7.71023C2.41114 7.71578 2.40558 7.72134 2.40002 7.72691C2.39445 7.73247 2.38888 7.73804 2.38331 7.74361C2.37774 7.74919 2.37217 7.75476 2.36659 7.76034C2.36101 7.76592 2.35542 7.7715 2.34984 7.77709C2.34425 7.78268 2.33866 7.78827 2.33307 7.79386C2.32747 7.79946 2.32187 7.80505 2.31627 7.81066C2.31067 7.81626 2.30506 7.82186 2.29945 7.82747C2.29385 7.83308 2.28823 7.83869 2.28262 7.84431C2.277 7.84993 2.27138 7.85555 2.26575 7.86117C2.26013 7.8668 2.2545 7.87243 2.24887 7.87806C2.24323 7.88369 2.2376 7.88933 2.23196 7.89497C2.22632 7.90061 2.22067 7.90625 2.21503 7.9119C2.20938 7.91755 2.20373 7.9232 2.19807 7.92886C2.19241 7.93451 2.18675 7.94017 2.18109 7.94584C2.17543 7.9515 2.16976 7.95717 2.16409 7.96284C2.15842 7.96851 2.15274 7.97419 2.14706 7.97987C2.14138 7.98555 2.1357 7.99123 2.13001 7.99692C2.12432 8.00261 2.11863 8.0083 2.11293 8.01399C2.10724 8.01969 2.10154 8.02539 2.09583 8.03109C2.09013 8.0368 2.08442 8.0425 2.07871 8.04822C2.073 8.05393 2.06728 8.05964 2.06156 8.06536C2.05584 8.07108 2.05012 8.07681 2.04439 8.08254C2.03866 8.08827 2.03293 8.094 2.02719 8.09973C2.02146 8.10547 2.01572 8.11121 2.00997 8.11696C2.00423 8.1227 1.99848 8.12845 1.99272 8.1342C1.98697 8.13996 1.98121 8.14572 1.97545 8.15148C1.96969 8.15724 1.96392 8.163 1.95815 8.16877C1.95238 8.17454 1.94661 8.18032 1.94083 8.1861C1.93505 8.19188 1.92927 8.19766 1.92348 8.20345C1.91769 8.20923 1.9119 8.21503 1.90611 8.22082C1.90031 8.22662 1.89451 8.23242 1.88871 8.23822C1.8829 8.24403 1.87709 8.24983 1.87128 8.25565C1.86547 8.26146 1.85965 8.26728 1.85383 8.2731C1.84801 8.27892 1.84218 8.28475 1.83635 8.29058C1.83052 8.29641 1.82468 8.30224 1.81885 8.30808C1.81301 8.31392 1.80716 8.31976 1.80131 8.32561C1.79547 8.33146 1.78961 8.33731 1.78376 8.34317C1.7779 8.34903 1.77204 8.35489 1.76617 8.36075C1.76031 8.36662 1.75444 8.37249 1.74856 8.37836C1.74269 8.38424 1.73681 8.39012 1.73092 8.396C1.72504 8.40189 1.71915 8.40777 1.71326 8.41367C1.70737 8.41956 1.70147 8.42546 1.69557 8.43136C1.68967 8.43726 1.68376 8.44317 1.67785 8.44908C1.67194 8.45499 1.66602 8.4609 1.6601 8.46682C1.65418 8.47274 1.64826 8.47867 1.64233 8.4846C1.6364 8.49053 1.63047 8.49646 1.62453 8.5024C1.61859 8.50834 1.61265 8.51428 1.6067 8.52023C1.60075 8.52618 1.5948 8.53213 1.58884 8.53809C1.58288 8.54404 1.57692 8.55001 1.57095 8.55597C1.56499 8.56194 1.55902 8.56791 1.55304 8.57389C1.54706 8.57986 1.54108 8.58584 1.5351 8.59183C1.52911 8.59781 1.52312 8.6038 1.51713 8.6098C1.51113 8.61579 1.50513 8.62179 1.49913 8.6278C1.49312 8.6338 1.48712 8.63981 1.4811 8.64583C1.47509 8.65184 1.46907 8.65786 1.46304 8.66388C1.45702 8.66991 1.45099 8.67593 1.44496 8.68197C1.43893 8.688 1.43289 8.69404 1.42685 8.70008C1.4208 8.70612 1.41475 8.71217 1.4087 8.71823C1.40265 8.72428 1.39659 8.73034 1.39053 8.7364C1.38447 8.74246 1.3784 8.74853 1.37233 8.7546C1.36625 8.76067 1.36018 8.76675 1.35409 8.77283C1.34801 8.77892 1.34192 8.785 1.33583 8.79109C1.32974 8.79719 1.32364 8.80328 1.31754 8.80939C1.31144 8.81549 1.30533 8.8216 1.29922 8.82771C1.29311 8.83382 1.28699 8.83994 1.28087 8.84606C1.27475 8.85218 1.26862 8.85831 1.26249 8.86444C1.25635 8.87057 1.25022 8.87671 1.24407 8.88285C1.23793 8.889 1.23178 8.89514 1.22563 8.9013C1.21948 8.90745 1.21332 8.91361 1.20716 8.91977C1.201 8.92593 1.19483 8.9321 1.18865 8.93827C1.18248 8.94445 1.1763 8.95062 1.17012 8.95681C1.16394 8.96299 1.15775 8.96918 1.15155 8.97537C1.14536 8.98157 1.13916 8.98777 1.13296 8.99397C1.12675 9.00017 1.12054 9.00638 1.11433 9.0126C1.10812 9.01881 1.1019 9.02503 1.09567 9.03126C1.08945 9.03748 1.08321 9.04371 1.07698 9.04995C1.07074 9.05618 1.0645 9.06242 1.05826 9.06867C1.05201 9.07492 1.04576 9.08117 1.0395 9.08742C1.03325 9.09368 1.02698 9.09994 1.02072 9.10621C1.01445 9.11248 1.00818 9.11875 1.0019 9.12503C0.995621 9.13131 0.989338 9.13759 0.983049 9.14388C0.976761 9.15017 0.970466 9.15646 0.964167 9.16276C0.957867 9.16906 0.951563 9.17536 0.945252 9.18167L2.21804 10.4545Z" fill="#18191B"/>
</svg>
