<svg width="19" height="16" viewBox="0 0 19 16" fill="none" xmlns="http://www.w3.org/2000/svg">
<path d="M7.10341 6.89474H1.21989C0.550568 6.89474 0 6.36842 0 5.71579V1.17895C0 0.526316 0.539773 0 1.21989 0H7.1142C7.78352 0 8.33409 0.526316 8.33409 1.17895V5.71579C8.33409 6.36842 7.79432 6.89474 7.1142 6.89474H7.10341ZM1.72727 5.21053H6.59602V1.68421H1.72727V5.21053ZM17.7801 6.89474H11.8858C11.2165 6.89474 10.6659 6.36842 10.6659 5.71579V1.17895C10.6659 0.526316 11.2057 0 11.8858 0H17.7801C18.4494 0 19 0.526316 19 1.17895V5.71579C19 6.36842 18.4602 6.89474 17.7801 6.89474ZM12.404 5.21053H17.2727V1.68421H12.404V5.21053ZM7.10341 16H1.21989C0.550568 16 0 15.4737 0 14.8211V10.2842C0 9.63158 0.550568 9.10526 1.21989 9.10526H7.1142C7.78352 9.10526 8.33409 9.63158 8.33409 10.2842V14.8211C8.33409 15.4737 7.79432 16 7.1142 16H7.10341ZM1.72727 14.3158H6.59602V10.7895H1.72727V14.3158ZM17.7801 16H11.8858C11.2165 16 10.6659 15.4737 10.6659 14.8211V10.2842C10.6659 9.63158 11.2165 9.10526 11.8858 9.10526H17.7801C18.4494 9.10526 19 9.63158 19 10.2842V14.8211C19 15.4737 18.4602 16 17.7801 16ZM12.404 14.3158H17.2727V10.7895H12.404V14.3158Z" fill="#939598"/>
</svg>
