<svg width="10" height="11" viewBox="0 0 10 11" fill="none" xmlns="http://www.w3.org/2000/svg">
<path d="M9.67882 9.88332C9.24193 10.3202 8.5334 10.3202 8.0965 9.88332L4.93186 6.71868L1.94303 9.70751C1.50613 10.1444 0.797601 10.1444 0.360704 9.70751C-0.0761924 9.27061 -0.0761929 8.56208 0.360704 8.12518L3.34954 5.13635L0.360704 2.14752C-0.0761924 1.71063 -0.0761928 1.0021 0.360704 0.565199C0.797601 0.128303 1.50613 0.128303 1.94303 0.5652L4.93186 3.55403L8.0965 0.389386C8.5334 -0.0475108 9.24193 -0.0475111 9.67882 0.389385C10.1157 0.826282 10.1157 1.53481 9.67882 1.97171L6.51418 5.13635L9.67882 8.301C10.1157 8.73789 10.1157 9.44642 9.67882 9.88332Z" fill="#1D9FF4"/>
</svg>
