<svg width="19" height="12" viewBox="0 0 19 12" fill="none" xmlns="http://www.w3.org/2000/svg">
<path d="M15.0348 1.4006L11.0283 10.5097C10.6772 11.4479 10.0576 12.0042 9.37609 12.0042C8.81848 12.0042 8.33315 11.7097 8.075 11.2079C7.78587 10.6515 7.81685 9.94242 8.15761 9.35333L13.4033 0.46242C13.6614 0.0260562 14.1984 -0.126671 14.6321 0.113329C15.0658 0.364238 15.2413 0.920602 15.0348 1.38969V1.4006ZM16.4391 4.05151C16.1293 3.69151 15.6027 3.66969 15.2723 3.99697C14.9315 4.32424 14.9109 4.8806 15.2207 5.22969C16.594 6.8006 17.3478 8.86242 17.3478 11.0224C17.3478 11.5024 17.7196 11.8951 18.1739 11.8951C18.6283 11.8951 19 11.5024 19 11.0224C19 8.42606 18.0913 5.94969 16.4391 4.05151ZM10.1609 2.58969C10.6152 2.63333 11.0179 2.27333 11.0592 1.79333C11.1005 1.31333 10.7598 0.887874 10.3054 0.844238C10.037 0.82242 9.76848 0.811511 9.5 0.811511C4.26467 0.811511 0 5.39333 0 11.0224C0 11.5024 0.371739 11.8951 0.826087 11.8951C1.28043 11.8951 1.65217 11.5024 1.65217 11.0224C1.65217 6.35333 5.17337 2.55697 9.5 2.55697C9.71685 2.55697 9.94402 2.55697 10.1609 2.58969Z" fill="#fff" />
</svg>
