<svg width="18" height="15" viewBox="0 0 18 15" fill="none" xmlns="http://www.w3.org/2000/svg">
<path d="M0.8 0H11.23C11.67 0 12 0.36 12 0.8V4.46C12 4.9 11.64 5.26 11.2 5.26C10.76 5.26 10.4 4.9 10.4 4.46V1.6H1.6V13.2H10.4V10.34C10.4 9.9 10.76 9.54 11.2 9.54C11.64 9.54 12 9.9 12 10.34V14C12 14.44 11.67 14.8 11.23 14.8H0.8C0.36 14.8 0 14.44 0 14V0.8C0 0.36 0.36 0 0.8 0ZM6.71 8.18L16.39 8.2C16.83 8.2 17.19 7.84 17.19 7.4C17.19 6.96 16.83 6.6 16.39 6.6L6.69 6.58L8.48 4.77C8.79 4.46 8.79 3.95 8.48 3.64C8.17 3.33 7.66 3.33 7.35 3.64L4.22 6.81C3.91 7.12 3.91 7.62 4.22 7.94L7.35 11.11C7.51 11.27 7.71 11.35 7.92 11.35C8.13 11.35 8.33 11.27 8.48 11.12C8.79 10.81 8.8 10.3 8.48 9.99L6.7 8.19L6.71 8.18Z" fill="#939598"/>
</svg>
