<svg width="14" height="19" viewBox="0 0 14 19" fill="none" xmlns="http://www.w3.org/2000/svg">
<path d="M12.7273 19C12.0273 19 11.4545 18.4035 11.4545 17.6744V1.32558C11.4545 0.596512 12.0273 0 12.7273 0C13.4273 0 14 0.596512 14 1.32558V17.6744C14 18.4035 13.4273 19 12.7273 19ZM8.27273 17.6744V6.71628C8.27273 5.98721 7.7 5.3907 7 5.3907C6.3 5.3907 5.72727 5.98721 5.72727 6.71628V17.6744C5.72727 18.4035 6.3 19 7 19C7.7 19 8.27273 18.4035 8.27273 17.6744ZM2.54545 17.6744V12.118C2.54545 11.389 1.97273 10.7924 1.27273 10.7924C0.572727 10.7924 0 11.389 0 12.118V17.6744C0 18.4035 0.572727 19 1.27273 19C1.97273 19 2.54545 18.4035 2.54545 17.6744Z" fill="#fff"/>
</svg>
