<svg width="18" height="18" viewBox="0 0 18 18" fill="none" xmlns="http://www.w3.org/2000/svg">
<path d="M2.7683 1.69549H4.86429C5.31249 1.69549 5.67551 1.33246 5.67551 0.884264C5.67551 0.437077 5.31249 0.0730419 4.86429 0.0730419H0.811222C0.596249 0.0730419 0.389387 0.15822 0.237283 0.310324C0.0851783 0.462427 0 0.669291 0 0.884264V4.94139C0 5.38858 0.363022 5.7516 0.811222 5.7516C1.25942 5.7516 1.62244 5.38858 1.62244 4.94038V2.84438L6.29813 7.52412C6.45632 7.68231 6.66419 7.7614 6.87207 7.7614C7.07994 7.7614 7.2868 7.68231 7.44499 7.52412C7.76238 7.20774 7.76238 6.69363 7.44601 6.37725L2.7683 1.69549ZM6.25554 10.4455L1.62244 15.0766V12.9786C1.62244 12.5304 1.26652 12.1684 0.818321 12.1684H0.821363C0.373162 12.1684 0.0121684 12.5314 0.0121684 12.9796V17.0357C0.0121684 17.2507 0.0983607 17.4575 0.250465 17.6096C0.402569 17.7617 0.609431 17.8469 0.824405 17.8469H4.87849C5.32669 17.8469 5.68971 17.4839 5.68971 17.0357C5.68971 16.5875 5.32669 16.2245 4.87849 16.2245H2.78249L7.41052 11.5924C7.72689 11.276 7.72284 10.7619 7.40646 10.4455C7.08907 10.1292 6.57191 10.1292 6.25554 10.4455ZM17.0357 12.1674C16.5875 12.1674 16.2244 12.5314 16.2244 12.9786V15.0756L11.5903 10.481C11.274 10.1646 10.7386 10.1646 10.4212 10.481C10.1048 10.7974 10.0936 11.3115 10.41 11.6279L14.9965 16.2245H12.8984H12.8964C12.4492 16.2245 12.0852 16.5875 12.0852 17.0357C12.0852 17.4839 12.4472 17.8469 12.8954 17.8469H16.9485C17.1634 17.8469 17.4139 17.7617 17.565 17.6096C17.7181 17.4575 17.8469 17.2507 17.8469 17.0357V12.9786C17.8469 12.5304 17.4829 12.1674 17.0357 12.1674ZM17.8469 0.811253L17.8459 4.86838C17.8459 5.31557 17.4829 5.6796 17.0347 5.6796C16.5875 5.6796 16.2244 5.31557 16.2244 4.86838V2.77137L11.5112 7.48761C11.3531 7.64682 11.1452 7.72591 10.9373 7.72591C10.7294 7.72591 10.5226 7.64682 10.3644 7.48863C10.047 7.17225 10.047 6.65814 10.3634 6.34176L15.0786 1.62248H12.9816C12.5334 1.62248 12.1704 1.25945 12.1704 0.811253C12.1704 0.363052 12.5334 3.05176e-05 12.9816 3.05176e-05H17.0357C17.2506 3.05176e-05 17.4565 0.0852108 17.6086 0.238329C17.7607 0.390432 17.8469 0.596279 17.8469 0.811253Z" fill="#939598"/>
</svg>
