<svg width="20" height="17" viewBox="0 0 20 17" fill="none" xmlns="http://www.w3.org/2000/svg">
<path d="M19.1304 0H0.869565C0.391304 0 0 0.3825 0 0.85V11.6981C0 12.1656 0.391304 12.5375 0.869565 12.5375H11.087V16.15C11.087 16.5112 11.3587 16.83 11.7065 16.9469C11.8043 16.9788 11.9348 17 12.0326 17C12.2826 17 12.5435 16.8831 12.7065 16.6919L16.3152 12.5375H19.1304C19.6087 12.5375 20 12.1763 20 11.6981V0.85C20 0.3825 19.6087 0 19.1304 0ZM18.2609 10.8375H15.913C15.6522 10.8375 15.3696 10.9544 15.2065 11.1456L12.837 13.8338V11.6981C12.837 11.2306 12.5435 10.8375 12.0652 10.8375H1.73913V1.7H18.2609V10.8375ZM4.05435 4.675C4.05435 4.2075 4.44565 3.825 4.92391 3.825H11.2174C11.6957 3.825 12.087 4.2075 12.087 4.675C12.087 5.1425 11.6957 5.525 11.2174 5.525H4.92391C4.44565 5.525 4.05435 5.1425 4.05435 4.675ZM13.5978 5.32313C13.4348 5.16375 13.3478 4.95125 13.3478 4.72812C13.3478 4.505 13.4457 4.28188 13.5978 4.1225C13.75 3.96313 13.9891 3.87813 14.2174 3.87813C14.4457 3.87813 14.6739 3.96313 14.837 4.1225C15 4.28188 15.087 4.505 15.087 4.72812C15.087 4.95125 14.9891 5.17438 14.837 5.32313C14.6739 5.4825 14.4457 5.57812 14.2174 5.57812C13.9891 5.57812 13.7609 5.4825 13.5978 5.32313Z" fill="#939598"/>
</svg>
