<svg width="18" height="19" viewBox="0 0 18 19" fill="none" xmlns="http://www.w3.org/2000/svg">
<path d="M9 12.0628C8.63372 12.0628 8.26744 12.2174 8.00581 12.4936C7.74419 12.7698 7.58721 13.1453 7.58721 13.543C7.58721 13.9407 7.73372 14.3163 8.00581 14.5924C8.27791 14.8686 8.63372 15.0233 9 15.0233C9.36628 15.0233 9.73256 14.8686 9.99419 14.5924C10.2558 14.3163 10.4023 13.9407 10.4023 13.543C10.4023 13.1453 10.2558 12.7698 9.99419 12.4936C9.73256 12.2174 9.36628 12.0628 9 12.0628ZM9 19C4.03954 19 0 14.736 0 9.5C0 4.26395 4.03954 0 9 0C13.9605 0 18 4.26395 18 9.5C18 14.736 13.9605 19 9 19ZM9 2.2093C5.1907 2.2093 2.09302 5.47907 2.09302 9.5C2.09302 13.5209 5.1907 16.7907 9 16.7907C12.8093 16.7907 15.907 13.5209 15.907 9.5C15.907 5.47907 12.8093 2.2093 9 2.2093ZM10.8209 6.11977L10.0465 10.1849C9.83721 11.3779 8.15232 11.3669 7.95349 10.1849L7.17907 6.11977C6.78139 3.03779 11.2081 3.03779 10.8105 6.11977H10.8209Z" fill="#fff"/>
</svg>
