<svg width="18" height="19" viewBox="0 0 18 19" fill="none" xmlns="http://www.w3.org/2000/svg">
<path d="M4.5 3.71648V1.04396C4.5 0.46978 4.98214 0 5.57143 0C6.16071 0 6.64286 0.46978 6.64286 1.04396V3.71648C6.64286 4.29066 6.16071 4.76044 5.57143 4.76044C4.98214 4.76044 4.5 4.29066 4.5 3.71648ZM12.4286 4.76044C13.0179 4.76044 13.5 4.29066 13.5 3.71648V1.04396C13.5 0.46978 13.0179 0 12.4286 0C11.8393 0 11.3571 0.46978 11.3571 1.04396V3.71648C11.3571 4.29066 11.8393 4.76044 12.4286 4.76044ZM5.19643 8.35165H12.8036C13.275 8.35165 13.6607 7.97582 13.6607 7.51648C13.6607 7.05714 13.275 6.68132 12.8036 6.68132H5.19643C4.725 6.68132 4.33929 7.05714 4.33929 7.51648C4.33929 7.97582 4.725 8.35165 5.19643 8.35165ZM17.1429 1.46154H15.3536C14.8821 1.46154 14.4964 1.83736 14.4964 2.2967C14.4964 2.75604 14.8821 3.13187 15.3536 3.13187H16.2857V17.3297H1.71429V3.13187H2.64643C3.11786 3.13187 3.50357 2.75604 3.50357 2.2967C3.50357 1.83736 3.11786 1.46154 2.64643 1.46154H0.857143C0.385714 1.46154 0 1.91044 0 2.36978V18.1648C0 18.6242 0.385714 19 0.857143 19H17.1429C17.6143 19 18 18.6242 18 18.1648V2.36978C18 1.91044 17.6143 1.46154 17.1429 1.46154ZM8.29286 3.13187H9.70714C10.1786 3.13187 10.5643 2.75604 10.5643 2.2967C10.5643 1.83736 10.1786 1.46154 9.70714 1.46154H8.29286C7.82143 1.46154 7.43571 1.83736 7.43571 2.2967C7.43571 2.75604 7.82143 3.13187 8.29286 3.13187ZM5.19643 12.1099H12.8036C13.275 12.1099 13.6607 11.7341 13.6607 11.2747C13.6607 10.8154 13.275 10.4396 12.8036 10.4396H5.19643C4.725 10.4396 4.33929 10.8154 4.33929 11.2747C4.33929 11.7341 4.725 12.1099 5.19643 12.1099Z" fill="#fff"/>
</svg>
