<svg width="14" height="9" viewBox="0 0 14 9" fill="none" xmlns="http://www.w3.org/2000/svg">
<path d="M0.246078 8.08241C-0.0820261 7.7543 -0.0820261 7.22308 0.246078 6.89498L3.41329 3.72553C3.7414 3.39743 4.27261 3.39743 4.60072 3.72553L6.46221 5.58256L11.7565 0.268162C12.0712 -0.0711027 12.6047 -0.0911909 12.9439 0.223522C13.2832 0.538234 13.3033 1.07168 12.9886 1.41095C12.9752 1.42434 12.9618 1.43996 12.9462 1.45335L7.05815 7.3637C6.73005 7.69181 6.19883 7.69404 5.87073 7.36593L4.007 5.50667L1.4335 8.08241C1.1054 8.41051 0.574183 8.41051 0.246078 8.08241ZM7.03137 0.861874C7.03137 0.397618 7.40635 0.0226414 7.8706 0.0226414H12.3502C12.8145 0.0226414 13.1895 0.397618 13.1895 0.861874V5.34151C13.1895 5.80576 12.8145 6.18074 12.3502 6.18074C11.886 6.18074 11.511 5.80576 11.511 5.34151V1.70111H7.87283C7.40858 1.70111 7.03137 1.32613 7.03137 0.861874Z" fill="#1D9FF4"/>
</svg>
