<svg width="17" height="17" viewBox="0 0 17 17" fill="none" xmlns="http://www.w3.org/2000/svg">
<path d="M14.6775 8.03757C14.6775 4.37605 11.6992 1.39774 8.03769 1.39774C4.37617 1.39774 1.39786 4.37605 1.39786 8.03757C1.39786 11.6991 4.37617 14.6774 8.03769 14.6774C11.6992 14.6774 14.6775 11.6991 14.6775 8.03757ZM16.0754 8.03757C16.0754 12.4697 12.4698 16.0753 8.03769 16.0753C3.6056 16.0753 0 12.4697 0 8.03757C0 3.60548 3.6056 -0.00012207 8.03769 -0.00012207C12.4698 -0.00012207 16.0754 3.60548 16.0754 8.03757ZM7.99226 10.8368C7.76161 10.8368 7.53795 10.9311 7.37371 11.0936C7.2112 11.2561 7.1186 11.4815 7.1186 11.7104C7.1186 11.9411 7.2112 12.1665 7.37371 12.329C7.53795 12.4915 7.76161 12.5859 7.99226 12.5859C8.2229 12.5859 8.44831 12.4915 8.61081 12.329C8.77331 12.1665 8.86592 11.9411 8.86592 11.7104C8.86592 11.4815 8.77331 11.2561 8.61081 11.0936C8.44831 10.9311 8.2229 10.8368 7.99226 10.8368ZM10.6447 4.45468C11.1977 5.0776 11.4589 5.94777 11.3515 6.84065C11.1497 8.51896 9.92305 9.11654 8.83097 9.11654C8.78554 9.11654 8.73662 9.11741 8.73662 9.11916V9.54376C8.73662 9.92992 8.42385 10.2427 8.03769 10.2427C7.65153 10.2427 7.33876 9.92992 7.33876 9.54376V8.98025C7.33876 8.4045 7.57902 7.71868 8.83097 7.71868C9.50719 7.71868 9.86888 7.36747 9.95188 6.67378C9.98071 6.43877 10.0017 5.84293 9.59368 5.38251C9.26169 5.00771 8.72264 4.81812 7.99226 4.81812C6.41093 4.81812 6.3655 5.84031 6.3655 5.95738C6.3655 6.34354 6.05273 6.65631 5.66657 6.65631C5.28041 6.65631 4.96764 6.34354 4.96764 5.95738C4.96764 5.25146 5.51106 3.42026 7.99226 3.42026C9.42157 3.42026 10.2262 3.9829 10.6447 4.45468Z" fill="white"/>
</svg>
