<svg width="17" height="17" viewBox="0 0 17 17" fill="none" xmlns="http://www.w3.org/2000/svg">
<path d="M10.3249 0C7.1249 0 4.5124 2.6375 4.5124 5.875C4.5124 7.2375 4.9749 8.4875 5.7499 9.4875L0.237402 15.075C-0.0875977 15.4 -0.0875977 15.9375 0.237402 16.2625C0.399902 16.425 0.612402 16.5 0.824902 16.5C1.0374 16.5 1.2624 16.4125 1.4249 16.25L6.9374 10.6625C7.8874 11.35 9.0499 11.7625 10.3124 11.7625C13.5124 11.7625 16.1124 9.125 16.1124 5.8875C16.1124 2.65 13.5249 0 10.3249 0ZM10.3249 10.2625C7.9499 10.2625 6.0124 8.3 6.0124 5.875C6.0124 3.45 7.9499 1.4875 10.3249 1.4875C12.6999 1.4875 14.6374 3.45 14.6374 5.875C14.6374 8.3 12.6999 10.2625 10.3249 10.2625ZM13.2249 5.95C13.1874 6.275 12.8999 6.5125 12.5749 6.5125C12.5499 6.5125 12.5124 6.5125 12.4874 6.5125C12.1249 6.4625 11.8749 6.1375 11.9249 5.775C12.0499 4.8 10.9624 4.2875 10.9249 4.2625C10.5999 4.1125 10.4499 3.725 10.5999 3.4C10.7499 3.075 11.1249 2.925 11.4624 3.075C11.5499 3.1125 13.4874 4 13.2249 5.95ZM11.8499 7.375C11.9874 7.5125 12.0624 7.7 12.0624 7.9C12.0624 8.1 11.9874 8.2875 11.8499 8.425C11.7124 8.5625 11.5124 8.6375 11.3249 8.6375C11.1374 8.6375 10.9374 8.5625 10.7999 8.425C10.6624 8.2875 10.5874 8.1 10.5874 7.9C10.5874 7.7 10.6624 7.5125 10.7999 7.375C10.9374 7.2375 11.1374 7.15 11.3249 7.15C11.5124 7.15 11.7124 7.225 11.8499 7.375Z" fill="#fff"/>
</svg>
