<svg width="19" height="16" viewBox="0 0 19 16" fill="none" xmlns="http://www.w3.org/2000/svg">
<path d="M5.02753 1.4359C5.02753 0.871795 5.50787 0.410256 6.09494 0.410256H17.9326C18.5197 0.410256 19 0.871795 19 1.4359C19 2 18.5197 2.46154 17.9326 2.46154H6.09494C5.50787 2.46154 5.02753 2 5.02753 1.4359ZM17.9326 6.97436H6.09494C5.50787 6.97436 5.02753 7.4359 5.02753 8C5.02753 8.5641 5.50787 9.02564 6.09494 9.02564H17.9326C18.5197 9.02564 19 8.5641 19 8C19 7.4359 18.5197 6.97436 17.9326 6.97436ZM17.9326 13.5385H6.09494C5.50787 13.5385 5.02753 14 5.02753 14.5641C5.02753 15.1282 5.50787 15.5897 6.09494 15.5897H17.9326C18.5197 15.5897 19 15.1282 19 14.5641C19 14 18.5197 13.5385 17.9326 13.5385ZM1.49438 6.64615C0.672472 6.64615 0 7.29231 0 8.10256C0 8.91282 0.661798 9.55897 1.49438 9.55897C2.32697 9.55897 2.98876 8.91282 2.98876 8.10256C2.98876 7.29231 2.32697 6.64615 1.49438 6.64615ZM1.49438 0C0.661798 0 0 0.646154 0 1.45641C0 2.26667 0.661798 2.91282 1.49438 2.91282C2.32697 2.91282 2.98876 2.26667 2.98876 1.45641C2.98876 0.646154 2.32697 0 1.49438 0ZM1.49438 13.0872C0.672472 13.0872 0 13.7333 0 14.5436C0 15.3538 0.661798 16 1.49438 16C2.32697 16 2.98876 15.3538 2.98876 14.5436C2.98876 13.7333 2.32697 13.0872 1.49438 13.0872Z" fill="#939598"/>
</svg>
