<svg width="18" height="18" viewBox="0 0 18 18" fill="none" xmlns="http://www.w3.org/2000/svg">
<g clip-path="url(#clip0_725_59)">
<path d="M8.59998 14.3C2.89998 14.3 -2.44081e-05 9.29995 -0.200024 9.09995C-0.300024 8.89995 -0.300024 8.69995 -0.200024 8.49995C-0.100024 8.29995 2.89998 3.19995 8.59998 3.19995C14.3 3.19995 17.3 8.29995 17.4 8.49995C17.5 8.69995 17.5 8.89995 17.4 9.09995C17.3 9.29995 14.3 14.4 8.59998 14.4V14.3ZM0.999976 8.79995C1.69998 9.79995 4.39998 13.2 8.59998 13.2C12.8 13.2 15.5 9.79995 16.2 8.79995C15.5 7.79995 12.8 4.39995 8.59998 4.39995C4.39998 4.39995 1.69998 7.69995 0.999976 8.79995Z" fill="#939598"/>
<path d="M8.50002 12.3C8.30002 12.3 8.10002 12.3 8.00002 12.3C7.70002 12.3 7.40002 12 7.40002 11.7C7.40002 11.4 7.70002 11.1 8.00002 11.1C8.10002 11.1 8.30002 11.1 8.40002 11.1C9.70002 11.1 10.8 9.99998 10.8 8.69998V8.19998C10.8 7.89998 11.1 7.59998 11.4 7.59998C11.7 7.59998 12 7.89998 12 8.19998V8.69998C12 10.7 10.4 12.3 8.40002 12.3H8.50002Z" fill="#939598"/>
<path d="M6 11.2C5.4 10.6 5 9.69995 5 8.79995C5 6.79995 6.6 5.19995 8.6 5.19995C10.6 5.19995 10.5 5.39995 11 6.09995C11 6.09995 11.1 6.19995 11.2 6.29995L10.3 7.09995C10.3 6.99995 10.1 6.89995 10.1 6.79995C9.9 6.49995 9.8 6.39995 8.7 6.39995C7.6 6.39995 6.3 7.49995 6.3 8.79995C6.3 10.1 6.5 9.99995 6.9 10.4L6.1 11.2H6Z" fill="#939598"/>
<path d="M2.8 14.8C2.6 14.8 2.5 14.8 2.4 14.6C2.2 14.4 2.2 14 2.4 13.8L14.2 2.59995C14.4 2.39995 14.8 2.39995 15 2.59995C15.2 2.79995 15.2 3.19995 15 3.39995L3.2 14.6C3.1 14.7 2.9 14.8 2.8 14.8Z" fill="#939598"/>
</g>
<defs>
<clipPath id="clip0_725_59">
<rect width="17.2" height="17.2" fill="white"/>
</clipPath>
</defs>
</svg>
