<svg width="19" height="19" viewBox="0 0 19 19" fill="none" xmlns="http://www.w3.org/2000/svg">
<path d="M9.2 0C4.13 0 0 4.13 0 9.2C0 14.27 4.13 18.4 9.2 18.4C14.27 18.4 18.4 14.27 18.4 9.2C18.4 4.13 14.27 0 9.2 0ZM9.2 16.8C5.01 16.8 1.6 13.39 1.6 9.2C1.6 5.01 5.01 1.6 9.2 1.6C13.39 1.6 16.8 5.01 16.8 9.2C16.8 13.39 13.39 16.8 9.2 16.8ZM12.25 11.12C12.56 11.43 12.56 11.94 12.25 12.25C12.09 12.41 11.89 12.48 11.68 12.48C11.47 12.48 11.27 12.4 11.11 12.25L8.62 9.76C8.47 9.61 8.39 9.41 8.39 9.19V4.42C8.39 3.98 8.75 3.62 9.19 3.62C9.63 3.62 9.99 3.98 9.99 4.42V8.86L12.24 11.11L12.25 11.12Z" fill="#939598"/>
</svg>
